<svg width="24" height="24" viewBox="0 0 24 24" fill="none" xmlns="http://www.w3.org/2000/svg">
    <path
        d="M21.5 2.50013C19.8937 0.908539 17.7238 0.015625 15.4625 0.015625C13.2012 0.015625 11.0314 0.908539 9.42502 2.50013C7.04802 4.87712 6.26802 10.4091 6.01502 13.5001C5.94545 14.3686 6.15005 15.237 6.60002 15.9831L2.80002 19.7831C2.65892 19.525 2.44504 19.3141 2.18499 19.1766C1.92495 19.0391 1.63022 18.9811 1.33746 19.0098C1.04471 19.0385 0.766861 19.1527 0.538481 19.3381C0.310101 19.5235 0.141272 19.7719 0.052998 20.0525C-0.0352759 20.3331 -0.0390982 20.6335 0.0420065 20.9162C0.123111 21.199 0.285563 21.4516 0.509151 21.6428C0.732739 21.8339 1.00759 21.9551 1.29952 21.9913C1.59145 22.0274 1.88756 21.9769 2.15102 21.8461C2.02019 22.1096 1.96971 22.4057 2.00586 22.6976C2.04201 22.9895 2.1632 23.2644 2.35434 23.488C2.54549 23.7116 2.79815 23.874 3.08091 23.9551C3.36366 24.0362 3.66403 24.0324 3.94462 23.9441C4.22522 23.8559 4.47368 23.687 4.65907 23.4586C4.84446 23.2303 4.95862 22.9524 4.98733 22.6597C5.01604 22.3669 4.95804 22.0722 4.82054 21.8121C4.68305 21.5521 4.47213 21.3382 4.21402 21.1971L8.01402 17.3971C8.75885 17.8515 9.62831 18.0587 10.498 17.9891C13.584 17.7361 19.115 16.9571 21.498 14.5791C23.0913 12.973 23.9855 10.8024 23.9859 8.54003C23.9863 6.27767 23.0928 4.10678 21.5 2.50013ZM20.085 13.1621C18.698 14.5471 15.056 15.6061 10.341 15.9931C10.0277 16.0203 9.7122 15.9785 9.41671 15.8708C9.12121 15.7631 8.85285 15.5921 8.63046 15.3697C8.40806 15.1473 8.23702 14.8789 8.12932 14.5834C8.02163 14.2879 7.97988 13.9725 8.00702 13.6591C8.39402 8.94412 9.45302 5.30012 10.838 3.91513C11.4428 3.29712 12.1641 2.8052 12.9602 2.46782C13.7564 2.13045 14.6115 1.95432 15.4762 1.94964C16.3409 1.94496 17.1979 2.11181 17.9976 2.44054C18.7974 2.76927 19.524 3.25336 20.1354 3.86477C20.7468 4.47619 21.2309 5.2028 21.5596 6.00254C21.8883 6.80229 22.0552 7.65929 22.0505 8.52395C22.0458 9.38861 21.8697 10.2438 21.5323 11.0399C21.195 11.836 20.703 12.5574 20.085 13.1621Z"
        fill="#5A6472"/>
</svg>
