<svg width="24" height="24" viewBox="0 0 24 24" fill="none" xmlns="http://www.w3.org/2000/svg">
    <path
        d="M18.9999 8.424V7C18.9999 5.14348 18.2624 3.36301 16.9497 2.05025C15.6369 0.737498 13.8564 0 11.9999 0C10.1434 0 8.36292 0.737498 7.05017 2.05025C5.73741 3.36301 4.99992 5.14348 4.99992 7V8.424C4.10928 8.81271 3.35121 9.45252 2.81842 10.2652C2.28562 11.0779 2.00119 12.0282 1.99992 13V19C2.0015 20.3256 2.5288 21.5964 3.46614 22.5338C4.40347 23.4711 5.67432 23.9984 6.99992 24H16.9999C18.3255 23.9984 19.5964 23.4711 20.5337 22.5338C21.471 21.5964 21.9983 20.3256 21.9999 19V13C21.9986 12.0282 21.7142 11.0779 21.1814 10.2652C20.6486 9.45252 19.8906 8.81271 18.9999 8.424ZM6.99992 7C6.99992 5.67392 7.5267 4.40215 8.46438 3.46447C9.40206 2.52678 10.6738 2 11.9999 2C13.326 2 14.5978 2.52678 15.5354 3.46447C16.4731 4.40215 16.9999 5.67392 16.9999 7V8H6.99992V7ZM19.9999 19C19.9999 19.7956 19.6838 20.5587 19.1212 21.1213C18.5586 21.6839 17.7956 22 16.9999 22H6.99992C6.20427 22 5.44121 21.6839 4.8786 21.1213C4.31599 20.5587 3.99992 19.7956 3.99992 19V13C3.99992 12.2044 4.31599 11.4413 4.8786 10.8787C5.44121 10.3161 6.20427 10 6.99992 10H16.9999C17.7956 10 18.5586 10.3161 19.1212 10.8787C19.6838 11.4413 19.9999 12.2044 19.9999 13V19Z"
        fill="#5A6472"/>
    <path
        d="M11.9999 13.9995C11.7347 13.9995 11.4804 14.1049 11.2928 14.2924C11.1053 14.4799 10.9999 14.7343 10.9999 14.9995V16.9995C10.9999 17.2647 11.1053 17.5191 11.2928 17.7066C11.4804 17.8941 11.7347 17.9995 11.9999 17.9995C12.2651 17.9995 12.5195 17.8941 12.707 17.7066C12.8946 17.5191 12.9999 17.2647 12.9999 16.9995V14.9995C12.9999 14.7343 12.8946 14.4799 12.707 14.2924C12.5195 14.1049 12.2651 13.9995 11.9999 13.9995Z"
        fill="#5A6472"/>
</svg>
