<svg width="24" height="24" viewBox="0 0 24 24" fill="none" xmlns="http://www.w3.org/2000/svg">
<path fill-rule="evenodd" clip-rule="evenodd" d="M10.8412 0.027319C9.26598 0.317252 8.03193 1.46094 7.59864 3.0325C7.53547 3.26153 7.51455 3.50675 7.51455 4.01778C7.51455 4.7439 7.56591 5.02689 7.79974 5.58958C7.92753 5.89711 8.35303 6.56889 8.51108 6.71262L8.61025 6.8028L8.13423 6.95933C7.17501 7.27475 6.33056 7.81393 5.58257 8.58866C4.63722 9.56788 4.06717 10.715 3.86672 12.0415C3.67529 13.308 3.87648 14.1012 4.56401 14.7911C4.80689 15.0348 4.99006 15.169 5.24621 15.291C5.69346 15.5039 5.97389 15.5607 6.57919 15.5607H7.06716V16.0418V16.523L6.66412 17.1797C6.44248 17.5409 6.2573 17.8412 6.25268 17.8471C6.24801 17.8531 5.86734 17.7824 5.40668 17.6902C4.65818 17.5403 4.51461 17.525 4.05559 17.5465C3.22794 17.5853 2.57927 17.8648 1.98382 18.4391C1.00578 19.3824 0.720124 20.8996 1.29368 22.1047C1.69783 22.9538 2.34044 23.5239 3.26184 23.8507L3.63537 23.9832L11.3394 23.9967C16.8221 24.0063 19.1309 23.9952 19.3469 23.9582C20.3283 23.79 21.2109 23.1205 21.6621 22.2019C21.9338 21.6485 22.0243 21.214 21.9946 20.6048C21.9522 19.7376 21.6042 18.9876 20.9674 18.3911C20.3793 17.8401 19.7679 17.5841 18.95 17.5462C18.4915 17.525 18.3466 17.5404 17.5989 17.6902C17.1383 17.7824 16.7576 17.8531 16.7529 17.8471C16.7483 17.8412 16.5631 17.5409 16.3415 17.1797L15.9384 16.523V16.0418V15.5607L16.4404 15.56C17.3465 15.5587 17.8881 15.3503 18.4378 14.7916C19.0353 14.1844 19.2337 13.628 19.1927 12.6749C19.1427 11.5142 18.7958 10.4502 18.1465 9.46597C17.8119 8.95879 17.0841 8.2009 16.5831 7.83791C16.0984 7.48669 15.2776 7.07115 14.7876 6.92883L14.4093 6.81899L14.6372 6.53483C14.9317 6.16757 15.2523 5.54092 15.3866 5.07034C15.5271 4.57765 15.5378 3.50717 15.407 3.0325C15.0087 1.58814 13.9246 0.4926 12.5067 0.101832C12.183 0.0126323 11.1678 -0.0327884 10.8412 0.027319ZM12.0397 1.46103C12.5533 1.56989 12.9237 1.77766 13.3278 2.18377C14.379 3.24018 14.379 4.79537 13.3278 5.85178C12.2766 6.90819 10.729 6.90819 9.67784 5.85178C9.27373 5.44567 9.06698 5.07353 8.95866 4.55738C8.7704 3.66018 9.01627 2.84857 9.67784 2.18377C10.34 1.51832 11.1461 1.27165 12.0397 1.46103ZM14.0942 8.20784C14.727 8.37648 15.4895 8.76317 15.9832 9.1659C17.0652 10.0484 17.7531 11.432 17.7745 12.7688C17.7824 13.2619 17.7765 13.2963 17.6427 13.5396C17.4938 13.8103 17.2247 14.0215 16.9206 14.1064C16.8298 14.1317 16.2093 14.1525 15.5416 14.1525C13.6232 14.1524 13.1491 14.046 11.8807 13.3306C11.6172 13.182 11.3866 13.1825 11.1249 13.3323C9.87506 14.0477 9.30099 14.1697 7.30061 14.1449L6.0633 14.1295L5.8136 13.9905C5.34431 13.7293 5.16823 13.3237 5.22221 12.6283C5.3261 11.2906 5.9942 10.0053 7.02238 9.16534C7.67568 8.63164 8.62934 8.2153 9.46007 8.10114C9.62055 8.07909 10.6238 8.06609 11.6896 8.07224C13.6207 8.08336 13.6288 8.08383 14.0942 8.20784ZM11.1825 9.07135C11.0758 9.12419 10.8493 9.38423 10.476 9.88259C9.92352 10.6199 9.71836 10.8384 9.4977 10.924C9.43206 10.9495 8.85005 11.0605 8.20427 11.1707C6.92891 11.3885 6.81867 11.4289 6.67603 11.7309C6.46508 12.1777 6.74139 12.6823 7.22315 12.7302C7.33045 12.7408 7.95709 12.6564 8.62355 12.5414C9.69147 12.3572 9.86922 12.3138 10.1739 12.1625C10.5755 11.963 10.9453 11.6392 11.2541 11.2165C11.3751 11.0508 11.487 10.9154 11.5028 10.9154C11.5186 10.9154 11.6305 11.0508 11.7515 11.2165C12.0603 11.6392 12.4301 11.963 12.8317 12.1625C13.1364 12.3138 13.3141 12.3572 14.382 12.5414C15.0485 12.6564 15.6752 12.7408 15.7825 12.7302C16.2642 12.6823 16.5405 12.1777 16.3296 11.7309C16.1869 11.4289 16.0767 11.3885 14.8013 11.1707C14.1555 11.0605 13.5735 10.9495 13.5079 10.924C13.2872 10.8383 13.082 10.6199 12.529 9.8817C11.9512 9.11053 11.8117 8.99046 11.4958 8.99262C11.4097 8.99318 11.2687 9.02865 11.1825 9.07135ZM11.8815 14.9447C12.6306 15.2923 13.3439 15.4836 14.1066 15.5414L14.5313 15.5737L14.5462 16.2827L14.5611 16.9918L14.8996 17.5348C15.0858 17.8335 15.2381 18.0978 15.2381 18.1223C15.2381 18.1468 14.3976 18.3348 13.3704 18.5402L11.5028 18.9136L9.63516 18.5402C8.60796 18.3348 7.76752 18.1468 7.76752 18.1223C7.76752 18.0978 7.91983 17.8335 8.10603 17.5348L8.44454 16.9918L8.45939 16.2827L8.47428 15.5737L8.89898 15.5414C9.66584 15.4832 10.4348 15.2779 11.1059 14.9523C11.3114 14.8526 11.4818 14.7692 11.4846 14.767C11.4874 14.7648 11.666 14.8448 11.8815 14.9447ZM6.13511 19.2912C7.09713 19.4848 7.90363 19.6496 7.9273 19.6575C7.95097 19.6653 7.85558 19.7368 7.71527 19.8164C7.41024 19.9894 6.99282 20.4302 6.8401 20.7406C6.59927 21.2299 6.53623 21.8155 6.67028 22.3175C6.7082 22.4594 6.73948 22.5808 6.73976 22.5873C6.74009 22.5937 6.14594 22.599 5.41943 22.599C4.03299 22.599 3.77983 22.5704 3.38884 22.3694C2.88434 22.1102 2.47328 21.5032 2.41557 20.9326C2.38209 20.6014 2.48219 20.1455 2.6521 19.8552C2.96601 19.3188 3.57294 18.9552 4.17409 18.9432C4.29063 18.9409 5.17309 19.0975 6.13511 19.2912ZM19.55 19.1199C20.4345 19.558 20.8092 20.5186 20.4613 21.456C20.3206 21.8352 19.8554 22.3045 19.4636 22.4625L19.1835 22.5755H13.884H8.58461L8.41186 22.4676C7.88588 22.1389 7.89419 21.3159 8.42633 21.0361C8.51659 20.9887 10.722 20.5208 13.5572 19.9476C19.1633 18.8142 18.983 18.8391 19.55 19.1199Z" fill="#5A6472"/>
</svg>
