<svg width="24" height="24" viewBox="0 0 24 24" fill="none" xmlns="http://www.w3.org/2000/svg">
    <path
        d="M19 1H4.99999C3.6744 1.00159 2.40355 1.52888 1.46621 2.46622C0.528874 3.40356 0.00158023 4.6744 -7.62939e-06 6L-7.62939e-06 14C0.00158023 15.3256 0.528874 16.5964 1.46621 17.5338C2.40355 18.4711 3.6744 18.9984 4.99999 19H11V21H6.99999C6.73478 21 6.48042 21.1054 6.29289 21.2929C6.10535 21.4804 5.99999 21.7348 5.99999 22C5.99999 22.2652 6.10535 22.5196 6.29289 22.7071C6.48042 22.8946 6.73478 23 6.99999 23H17C17.2652 23 17.5196 22.8946 17.7071 22.7071C17.8946 22.5196 18 22.2652 18 22C18 21.7348 17.8946 21.4804 17.7071 21.2929C17.5196 21.1054 17.2652 21 17 21H13V19H19C20.3256 18.9984 21.5964 18.4711 22.5338 17.5338C23.4711 16.5964 23.9984 15.3256 24 14V6C23.9984 4.6744 23.4711 3.40356 22.5338 2.46622C21.5964 1.52888 20.3256 1.00159 19 1V1ZM4.99999 3H19C19.7956 3 20.5587 3.31607 21.1213 3.87868C21.6839 4.44129 22 5.20435 22 6V13H1.99999V6C1.99999 5.20435 2.31606 4.44129 2.87867 3.87868C3.44128 3.31607 4.20434 3 4.99999 3V3ZM19 17H4.99999C4.38173 16.9974 3.77936 16.8039 3.27529 16.4459C2.77122 16.0879 2.39008 15.5829 2.18399 15H21.816C21.6099 15.5829 21.2288 16.0879 20.7247 16.4459C20.2206 16.8039 19.6183 16.9974 19 17Z"
        fill="#5A6472"/>
</svg>
