<svg width="24" height="24" viewBox="0 0 24 24" fill="none" xmlns="http://www.w3.org/2000/svg">
    <path
        d="M11 22.9998C11 22.8021 11.0586 22.6087 11.1685 22.4443C11.2784 22.2798 11.4346 22.1517 11.6173 22.076C11.8 22.0003 12.0011 21.9805 12.1951 22.0191C12.3891 22.0576 12.5672 22.1529 12.7071 22.2927C12.847 22.4326 12.9422 22.6108 12.9808 22.8048C13.0194 22.9987 12.9996 23.1998 12.9239 23.3825C12.8482 23.5653 12.72 23.7214 12.5556 23.8313C12.3911 23.9412 12.1978 23.9998 12 23.9998C11.7348 23.9998 11.4804 23.8945 11.2929 23.707C11.1054 23.5194 11 23.2651 11 22.9998ZM15.535 20.8778C15.7225 20.6903 15.8278 20.436 15.8278 20.1708C15.8278 19.9057 15.7225 19.6514 15.535 19.4638C14.5974 18.5265 13.3258 17.9999 12 17.9999C10.6742 17.9999 9.40263 18.5265 8.46499 19.4638C8.28284 19.6524 8.18204 19.905 8.18432 20.1672C8.1866 20.4294 8.29177 20.6803 8.47718 20.8657C8.66258 21.0511 8.9134 21.1562 9.17559 21.1585C9.43779 21.1608 9.69039 21.06 9.87899 20.8778C10.4507 20.3329 11.2102 20.0289 12 20.0289C12.7898 20.0289 13.5493 20.3329 14.121 20.8778C14.3085 21.0653 14.5628 21.1706 14.828 21.1706C15.0932 21.1706 15.3475 21.0653 15.535 20.8778V20.8778ZM18.364 18.0498C18.5515 17.8623 18.6568 17.608 18.6568 17.3428C18.6568 17.0777 18.5515 16.8234 18.364 16.6358C16.6749 14.9504 14.3861 14.0039 12 14.0039C9.61384 14.0039 7.32512 14.9504 5.63599 16.6358C5.45384 16.8244 5.35304 17.077 5.35532 17.3392C5.3576 17.6014 5.46277 17.8522 5.64818 18.0377C5.83358 18.2231 6.0844 18.3282 6.34659 18.3305C6.60879 18.3328 6.86139 18.232 7.04999 18.0498C8.3642 16.7396 10.1442 16.0039 12 16.0039C13.8557 16.0039 15.6358 16.7396 16.95 18.0498C17.1375 18.2373 17.3918 18.3426 17.657 18.3426C17.9222 18.3426 18.1765 18.2373 18.364 18.0498V18.0498ZM5.98699 22.1608C6.00814 22.0312 6.00355 21.8987 5.97349 21.7709C5.94342 21.643 5.88847 21.5224 5.81177 21.4158C5.73507 21.3092 5.63812 21.2187 5.52646 21.1496C5.4148 21.0804 5.29061 21.034 5.16099 21.0128C4.40535 20.8933 3.7032 20.5491 3.14599 20.0249C2.58879 19.5006 2.20234 18.8208 2.037 18.0738C1.92939 17.3596 2.04716 16.6296 2.37391 15.9854C2.70066 15.3412 3.22013 14.8149 3.85999 14.4798C4.32062 14.2271 4.66328 13.8032 4.81391 13.2998C4.96455 12.7965 4.91105 12.2541 4.665 11.7898C4.27616 11.0493 4.04644 10.2356 3.9906 9.40109C3.93476 8.56655 4.05402 7.72954 4.34073 6.9438C4.62743 6.15806 5.07526 5.44095 5.65545 4.83848C6.23564 4.23602 6.93539 3.76152 7.70978 3.44543C8.48417 3.12934 9.31609 2.97866 10.1521 3.00304C10.9882 3.02743 11.8099 3.22635 12.5646 3.58703C13.3192 3.94772 13.9901 4.4622 14.5342 5.09745C15.0783 5.73271 15.4836 6.47471 15.724 7.27582C15.872 7.75853 16.1356 8.19779 16.492 8.55541C16.8484 8.91302 17.2868 9.17818 17.769 9.32783C19.0754 9.72552 20.206 10.5589 20.9724 11.6891C21.7389 12.8193 22.0948 14.178 21.981 15.5388C21.8916 16.5607 21.5274 17.5394 20.9271 18.3713C20.3268 19.2031 19.5127 19.857 18.571 20.2638C18.3378 20.3814 18.1598 20.5855 18.0752 20.8326C17.9905 21.0796 18.0059 21.35 18.1179 21.5859C18.23 21.8218 18.4299 22.0045 18.6749 22.0949C18.9199 22.1853 19.1905 22.1763 19.429 22.0698C20.6918 21.5164 21.7813 20.6315 22.5818 19.5089C23.3824 18.3864 23.8641 17.0681 23.976 15.6938C24.127 13.8795 23.6515 12.0683 22.6289 10.5621C21.6062 9.05586 20.0981 7.94575 18.356 7.41682C18.1844 7.36352 18.0287 7.2686 17.9028 7.14054C17.7768 7.01247 17.6845 6.85523 17.634 6.68282C17.1046 4.9829 16.0233 3.50816 14.5612 2.49211C13.0991 1.47606 11.3399 0.976765 9.56208 1.0733C7.78426 1.16983 6.08944 1.85666 4.74598 3.02504C3.40253 4.19342 2.48722 5.77658 2.145 7.52382C1.79541 9.29172 2.07039 11.1261 2.923 12.7138C1.91801 13.2393 1.10186 14.0651 0.588169 15.0761C0.0744781 16.0872 -0.111195 17.2333 0.056996 18.3548C0.28548 19.523 0.866261 20.5931 1.7212 21.4212C2.57613 22.2493 3.6642 22.7957 4.839 22.9868C4.96861 23.008 5.10112 23.0034 5.22896 22.9733C5.35681 22.9433 5.47747 22.8883 5.58408 22.8116C5.69068 22.7349 5.78113 22.638 5.85026 22.5263C5.9194 22.4146 5.96586 22.2905 5.98699 22.1608V22.1608Z"
        fill="#0C73FE"/>
</svg>
