<svg width="24" height="24" viewBox="0 0 24 24" fill="none" xmlns="http://www.w3.org/2000/svg">
<path fill-rule="evenodd" clip-rule="evenodd" d="M10.9213 1.05107C8.3871 1.51179 6.33589 3.29957 5.55166 5.73102C5.2122 6.78345 5.22969 6.51374 5.21192 10.9654L5.19583 14.985L3.02845 14.9853C1.66078 14.9854 0.795695 15.0042 0.683931 15.0362C0.147105 15.1897 -0.154467 15.8765 0.0808813 16.4098C0.251272 16.7959 0.61086 17.0121 1.08385 17.0126L1.30663 17.0129V19.6462C1.30663 22.1397 1.31137 22.2891 1.39588 22.4587C1.4993 22.6663 1.64352 22.8117 1.85537 22.9219C1.99223 22.9931 2.8878 23 12 23C21.1122 23 22.0078 22.9931 22.1446 22.9219C22.3565 22.8117 22.5007 22.6663 22.6041 22.4587C22.6886 22.2891 22.6934 22.1397 22.6934 19.6462V17.0129L22.9161 17.0126C23.3891 17.0121 23.7487 16.7959 23.9191 16.4098C24.1545 15.8765 23.8529 15.1897 23.3161 15.0362C23.2043 15.0042 22.3392 14.9854 20.9715 14.9853L18.8042 14.985L18.7881 10.9654C18.7703 6.51374 18.7878 6.78345 18.4483 5.73102C17.699 3.40787 15.7643 1.64785 13.3601 1.1022C12.8843 0.994195 11.4046 0.963197 10.9213 1.05107ZM11.0151 5.54561V7.98392H9.06814H7.1212L7.14357 7.80285C7.15586 7.70329 7.17846 7.4839 7.19385 7.31529C7.25243 6.67346 7.55981 5.83473 7.97517 5.18349C8.39258 4.52901 9.28149 3.75035 9.96577 3.43979C10.2613 3.30561 10.8276 3.11224 10.933 3.10948C11.0101 3.10746 11.0151 3.25477 11.0151 5.54561ZM13.4203 3.20417C14.7141 3.61559 15.7988 4.5812 16.3867 5.84502C16.5884 6.2786 16.7695 6.91328 16.8062 7.31529C16.8215 7.4839 16.8441 7.70329 16.8564 7.80285L16.8788 7.98392H14.9319H12.9849V5.54561C12.9849 3.49227 12.9952 3.10731 13.0503 3.10731C13.0863 3.10731 13.2528 3.15091 13.4203 3.20417ZM11.0151 12.4984V14.985H9.0687H7.12232V12.4984V10.0118H9.0687H11.0151V12.4984ZM16.8777 12.4984V14.985H14.9313H12.9849V12.4984V10.0118H14.9313H16.8777V12.4984ZM5.18818 19.0046L5.17594 20.9962L4.20275 21.0093L3.22956 21.0224V19.0176V17.0129H4.21499H5.20042L5.18818 19.0046ZM9.08094 19.0046L9.0687 20.9962H8.10724H7.14577L7.13353 19.0046L7.12129 17.0129H8.10724H9.09319L9.08094 19.0046ZM12.9737 19.0046L12.9615 20.9962H12H11.0385L11.0263 19.0046L11.0141 17.0129H12H12.9859L12.9737 19.0046ZM16.8665 19.0046L16.8542 20.9962H15.8928H14.9313L14.9191 19.0046L14.9068 17.0129H15.8928H16.8787L16.8665 19.0046ZM20.7704 19.0176V21.0224L19.7972 21.0093L18.8241 20.9962L18.8118 19.0046L18.7996 17.0129H19.785H20.7704V19.0176Z" fill="#5A6472"/>
</svg>
