<svg width="57" height="34" viewBox="0 0 57 34" fill="none" xmlns="http://www.w3.org/2000/svg">
    <path
        d="M6.65305 15.4058V15.4058C6.08677 17.61 6.08677 19.9216 6.65305 22.1258V22.1258V22.1258C5.46245 20.5913 3.76161 19.5339 1.85866 19.1453L0 18.7658L1.85866 18.3862C3.76161 17.9976 5.46245 16.9403 6.65305 15.4058V15.4058Z"
        fill="white"/>
    <path
        d="M11.5345 8.85171V8.85171C10.4005 9.5244 9.45266 10.4809 8.78734 11.6193V11.6193V11.6193C8.9244 10.4927 8.6572 9.35391 8.03332 8.40579L7.4209 7.4751L8.35098 8.09626C9.28729 8.72157 10.4171 8.98967 11.5345 8.85171V8.85171Z"
        fill="white"/>
    <path
        d="M21.9634 6.70255V6.70255C19.7765 6.13233 17.4799 6.13233 15.293 6.70255V6.70255V6.70255C16.8168 5.5026 17.8637 3.79943 18.2463 1.89798L18.6282 0L19.01 1.89798C19.3926 3.79943 20.4396 5.5026 21.9634 6.70255V6.70255Z"
        fill="white"/>
    <path
        d="M25.7227 8.85269L27.1248 9.68441L29.8363 7.47607L28.9062 8.09724C27.9699 8.72255 26.8401 8.99065 25.7227 8.85269Z"
        fill="white"/>
    <path
        d="M16.0264 18.3275L28.1799 10.2248C29.715 9.20144 31.7339 9.28072 33.184 10.4213V10.4213V10.4213C31.5772 10.5996 30.0171 11.0728 28.582 11.817L16.0264 18.3275Z"
        fill="white"/>
    <path
        d="M15.5928 20.5089L34.6995 10.1041C37.513 8.57198 41.0278 9.3864 42.8807 11.9998V11.9998V11.9998C40.4973 11.2936 37.9446 11.419 35.6419 12.3554L15.5928 20.5089Z"
        fill="white"/>
    <path
        d="M15.8662 22.6809L32.3602 16.3622C39.9142 13.4684 47.8359 11.645 55.8949 10.9451L56.0535 10.9313C56.1777 10.9205 56.2752 11.0358 56.244 11.1566V11.1566C55.4367 14.2741 53.7686 17.1016 51.4303 19.316L46.558 23.93C44.9936 25.4116 43.7896 27.232 43.0385 29.2516V29.2516V29.2516C43.2191 27.0944 43.94 25.0175 45.1345 23.2123L48.759 17.7352C49.3952 16.7738 48.7058 15.491 47.553 15.491V15.491C43.8773 15.491 40.2182 15.9849 36.6739 16.9595L15.8662 22.6809Z"
        fill="white"/>
    <path
        d="M45.9134 19.4185L43.549 23.044C42.3653 24.859 41.5498 26.889 41.1489 29.0185V29.0185L35.9747 27.2499C31.3586 25.6721 26.5563 24.7034 21.6895 24.3685V24.3685V24.3685C25.4074 23.9791 29.1594 24.0577 32.8578 24.6024L37.9421 25.3513C38.9419 25.4986 39.9601 25.2577 40.7879 24.6782V24.6782C41.4314 24.2277 42.0225 23.7067 42.5503 23.125L45.9134 19.4185Z"
        fill="white"/>
    <path
        d="M12.9941 25.9638C12.9941 25.9638 21.4404 24.4366 26.4558 26.1478C32.8197 28.3191 36.1478 30.6715 42.8139 31.5187C46.2585 31.9565 51.7006 31.7692 51.7006 31.7692C51.7006 31.7692 45.931 32.8655 41.798 32.5092C35.4815 31.9646 31.4027 29.2364 25.7221 27.3007C20.988 25.6875 12.9941 25.9638 12.9941 25.9638Z"
        fill="white"/>
    <path
        d="M14.7266 27.7089C14.7266 27.7089 20.3574 27.4908 24.2557 28.7999C28.1539 30.1089 29.656 30.7339 33.0589 32.1214C36.1671 33.3887 40.4694 33.9673 40.4694 33.9673C40.4694 33.9673 36.1321 34.2061 33.5412 33.3887C30.7528 32.509 28.4014 31.5914 25.1374 30.3591C21.0071 28.7999 14.7266 27.7089 14.7266 27.7089Z"
        fill="white"/>
    <path d="M32.8355 14.2954V15.4299L30.7607 16.1892V15.2074L32.8355 14.2954Z" fill="white"/>
    <path d="M29.0632 15.9536V16.8089L28.1104 17.158V16.3725L29.0632 15.9536Z" fill="white"/>
    <path d="M26.8713 16.9175V17.6113L26.1133 17.8862V17.2491L26.8713 16.9175Z" fill="white"/>
    <path
        d="M24.4188 11.032C22.5712 9.64011 20.2766 8.98867 17.9795 9.20388C15.6824 9.4191 13.5464 10.4857 11.9852 12.1969C10.4241 13.9081 9.54907 16.1422 9.52963 18.4663C9.51018 20.7904 10.3477 23.0391 11.88 24.7766"
        stroke="white" stroke-width="4"/>
</svg>
