<svg width="177" height="36" viewBox="0 0 177 36" fill="none" xmlns="http://www.w3.org/2000/svg">
<path d="M33.2406 15.2666C32.6054 15.2666 31.8811 15.6466 31.7585 15.8855C31.6359 16.1245 31.7784 16.8418 32.1819 16.7107C32.5543 16.5898 33.4523 16.2981 33.664 15.8855C33.8757 15.4729 33.664 15.2666 33.2406 15.2666Z" fill="#006CAE"/>
<path d="M30.0647 16.7107C29.952 16.6008 29.2178 16.7107 29.0061 17.1233C28.8324 17.4618 29.0484 17.7422 29.2178 17.7422C29.3872 17.7422 29.853 17.5359 30.0647 17.3296C30.2764 17.1233 30.2764 16.917 30.0647 16.7107Z" fill="#006CAE"/>
<path d="M28.1592 17.9486C28.1592 17.7932 28.1592 17.3296 27.7358 17.5359C27.4743 17.6633 27.1006 17.9898 27.1006 18.1549C27.1006 18.5675 27.524 18.5675 27.7358 18.3612C27.9475 18.1549 28.1592 18.1549 28.1592 17.9486Z" fill="#006CAE"/>
<path d="M24.7714 13.8231C21.3838 15.8242 18.9029 17.9807 18.8432 18.3618C18.7835 18.7428 19.8397 17.835 20.8394 17.1247C23.3842 15.3167 29.4878 12.6687 30.9114 11.9664C31.4068 11.7219 31.968 11.495 32.6051 11.453C32.9845 11.4279 33.3474 11.5124 33.452 11.453C33.7325 11.2936 33.0286 10.3159 31.97 10.3159C31.3235 10.2568 28.159 11.822 24.7714 13.8231Z" fill="#006CAE"/>
<path d="M31.5466 13.4103C25.4067 15.8859 18.0988 20.4276 18.0988 20.5873C17.9941 20.9457 20.537 19.5994 22.866 18.5679C28.7942 15.9422 34.299 13.8229 37.4748 12.9977C38.5801 12.7105 39.353 12.3874 40.6507 12.5851C41.4233 12.7027 42.9543 13.281 43.1914 13.204C43.8265 12.9977 42.1579 11.5617 40.8624 11.1409C39.5921 10.7283 36.9428 10.896 31.5466 13.4103Z" fill="#006CAE"/>
<path d="M42.1327 24.3446C42.1327 24.3446 45.9437 20.6311 45.9437 20.8374C45.9437 21.0437 43.403 24.7572 42.9796 25.5824C42.2903 26.9257 42.3184 27.3596 42.1327 28.2643C42.0057 28.8832 41.7093 28.8832 41.7093 28.8832C39.3803 28.4706 36.4117 27.1626 34.0873 26.4076C29.6411 24.9635 25.8301 24.7572 25.8301 24.5509C25.8301 24.3446 37.4664 25.5824 39.1686 25.5824C40.4389 25.5824 41.8504 24.6196 42.1327 24.3446Z" fill="#006CAE"/>
<path d="M56.3179 11.9658C52.5069 10.728 18.6313 22.281 18.6313 22.6936C18.6313 22.9234 25.9556 20.5432 32.3933 18.7738C37.5153 17.3661 41.9985 16.5045 42.3443 16.5045C43.1246 16.5045 48.2725 15.473 49.1194 18.1549C49.6405 19.8053 46.1553 23.1062 44.8849 25.1692C43.6146 27.2323 43.7399 29.2953 44.038 29.2953C44.3362 29.2953 44.2498 27.1763 47.4256 24.1377C50.6014 21.0991 59.3375 12.9466 56.3179 11.9658Z" fill="#006CAE"/>
<path d="M25.4067 25.7881C22.6626 25.2788 17.9965 25.3755 16.3027 25.7881C16.3027 25.7881 14.3972 26.407 16.9378 26.407C19.0551 26.407 20.7489 26.5308 23.713 26.8196C27.7357 27.2116 31.4056 28.6763 33.2405 29.5015C35.4283 30.3955 40.3967 32.266 42.768 32.5961C45.7321 33.0087 45.7321 32.8024 47.6376 32.8024C49.162 32.8024 51.0957 32.1147 51.8721 31.7709C52.0838 31.5646 53.4388 31.3995 48.6962 31.5646C43.9536 31.7296 38.5335 29.7078 36.2046 29.0889C33.7345 28.2637 29.8529 26.6133 25.4067 25.7881Z" fill="#00B3E8"/>
<path d="M34.511 31.7706C25.1952 28.0571 22.4428 27.4382 16.5146 27.6445C15.6677 27.674 15.5407 28.4697 16.7263 28.4697C23.5508 29.3371 28.2919 30.921 32.3938 32.1832C34.1456 32.7223 34.9344 32.8537 37.4751 33.6273C40.8627 34.6588 37.1928 32.8708 34.511 31.7706Z" fill="#00B3E8"/>
<path d="M17.5399 22.842C17.088 21.8012 17.0285 20.8517 17.3613 19.3923C17.723 17.8063 19.0117 16.8224 19.5117 16.4406L23.0778 13.8221C24.7716 12.7906 26.1311 12.139 26.5165 11.9435C26.6145 11.8937 26.7132 11.8453 26.8506 11.7778L26.8678 11.7693C25.0487 10.1001 22.5979 9.07715 19.9019 9.07715C14.2892 9.07715 9.73926 13.5107 9.73926 18.9797C9.73926 22.7736 11.9288 26.0692 15.1438 27.7321C15.1438 27.7321 14.932 26.894 15.1438 25.6561C15.3555 24.4183 15.5405 24.2198 15.8792 23.7247C16.218 23.2296 17.1275 22.8612 17.5399 22.842Z" fill="#BC002D"/>
<path d="M5.29302 18.3605C4.02269 18.9794 2.11719 19.392 2.11719 19.392C2.11719 19.392 4.02269 19.8046 5.29302 20.4235C6.56336 21.0424 8.04542 22.2803 8.04542 22.2803C8.04542 22.2803 7.62197 20.2172 7.62197 19.392C7.62197 18.5668 8.04542 16.5038 8.04542 16.5038C8.04542 16.5038 6.56336 17.7416 5.29302 18.3605Z" fill="#BC002D"/>
<path d="M20.9602 5.15706C20.3251 3.91923 19.9016 2.0625 19.9016 2.0625C19.9016 2.0625 19.4782 3.91923 18.843 5.15706C18.2078 6.39488 16.9375 7.839 16.9375 7.839C16.9375 7.839 19.0547 7.4264 19.9016 7.4264C20.7485 7.4264 22.8657 7.839 22.8657 7.839C22.8657 7.839 21.5954 6.39488 20.9602 5.15706Z" fill="#BC002D"/>
<path d="M9.72269 10.3314C9.413 9.53583 10.2125 8.75679 11.029 9.05856L11.0945 9.08279C11.7818 9.33679 11.9712 10.1971 11.4515 10.7035L11.4108 10.7431C10.8911 11.2496 10.0082 11.0649 9.74756 10.3953L9.72269 10.3314Z" fill="#BC002D"/>
<path d="M28.2334 9.26235L29.8531 8.66229C30.2684 8.5084 30.698 8.84243 30.5639 9.25524C30.5247 9.37563 30.4264 9.52527 30.3153 9.59024L28.8294 10.4589C28.5598 10.6165 28.1017 10.465 27.8794 10.2484C27.528 9.90597 27.7689 9.43445 28.2334 9.26235Z" fill="#BC002D"/>
<path d="M67.3651 20.8087C66.5927 20.8087 65.8204 20.7823 65.048 20.7295C64.2892 20.6899 63.4965 20.5843 62.6699 20.4126V7.10356C63.3203 6.98473 64.0317 6.89891 64.8041 6.8461C65.5764 6.78008 66.2946 6.74707 66.9586 6.74707C67.8529 6.74707 68.6727 6.81309 69.4179 6.94512C70.1768 7.06395 70.8272 7.27521 71.3692 7.57889C71.9112 7.88257 72.3312 8.28527 72.6293 8.787C72.941 9.27553 73.0968 9.88289 73.0968 10.6091C73.0968 11.705 72.5548 12.5698 71.4708 13.2036C72.3651 13.5336 72.9749 13.9826 73.3001 14.5503C73.6253 15.1181 73.7879 15.7584 73.7879 16.4714C73.7879 17.9106 73.2459 18.9933 72.1619 19.7194C71.0914 20.4456 69.4925 20.8087 67.3651 20.8087ZM65.7594 14.6493V18.1945C65.9897 18.2209 66.2404 18.2407 66.5114 18.2539C66.7824 18.2671 67.0805 18.2737 67.4057 18.2737C68.3542 18.2737 69.1198 18.1416 69.7025 17.8776C70.2852 17.6135 70.5765 17.125 70.5765 16.412C70.5765 15.7782 70.3326 15.3293 69.8448 15.0652C69.357 14.788 68.6591 14.6493 67.7513 14.6493H65.7594ZM65.7594 12.2925H67.3041C68.2797 12.2925 68.9776 12.1737 69.3976 11.936C69.8177 11.6852 70.0277 11.2891 70.0277 10.7477C70.0277 10.1932 69.8109 9.80367 69.3773 9.57921C68.9437 9.35475 68.3068 9.24252 67.4667 9.24252C67.1957 9.24252 66.9044 9.24912 66.5927 9.26233C66.2811 9.26233 66.0033 9.27553 65.7594 9.30194V12.2925Z" fill="#006CAE"/>
<path d="M85.818 15.4019C85.818 16.2205 85.696 16.9731 85.4521 17.6597C85.2082 18.3331 84.8559 18.914 84.3952 19.4026C83.9345 19.8779 83.3789 20.2476 82.7285 20.5117C82.0917 20.7757 81.3735 20.9078 80.574 20.9078C79.7881 20.9078 79.0699 20.7757 78.4195 20.5117C77.7827 20.2476 77.2339 19.8779 76.7732 19.4026C76.3125 18.914 75.9534 18.3331 75.6959 17.6597C75.4385 16.9731 75.3098 16.2205 75.3098 15.4019C75.3098 14.5833 75.4385 13.8373 75.6959 13.1639C75.9669 12.4906 76.3328 11.9162 76.7935 11.4409C77.2678 10.9656 77.8233 10.5959 78.4602 10.3318C79.1106 10.0677 79.8152 9.9357 80.574 9.9357C81.3464 9.9357 82.051 10.0677 82.6879 10.3318C83.3383 10.5959 83.8938 10.9656 84.3545 11.4409C84.8152 11.9162 85.1743 12.4906 85.4318 13.1639C85.6892 13.8373 85.818 14.5833 85.818 15.4019ZM82.7285 15.4019C82.7285 14.4909 82.5388 13.7779 82.1594 13.263C81.7935 12.7348 81.2651 12.4708 80.574 12.4708C79.883 12.4708 79.3477 12.7348 78.9683 13.263C78.5889 13.7779 78.3992 14.4909 78.3992 15.4019C78.3992 16.313 78.5889 17.0392 78.9683 17.5805C79.3477 18.1086 79.883 18.3727 80.574 18.3727C81.2651 18.3727 81.7935 18.1086 82.1594 17.5805C82.5388 17.0392 82.7285 16.313 82.7285 15.4019Z" fill="#006CAE"/>
<path d="M92.6559 12.6292C92.6423 13.0121 92.622 13.4214 92.5949 13.8571C92.5813 14.2796 92.5475 14.7087 92.4933 15.1445C92.4391 15.567 92.3645 15.9829 92.2697 16.3922C92.1884 16.8015 92.08 17.1844 91.9445 17.5409C91.7819 17.9634 91.5718 18.3595 91.3144 18.7292C91.0705 19.0857 90.7521 19.4092 90.3591 19.6996C89.9797 19.9901 89.5122 20.2344 88.9566 20.4324C88.4146 20.6173 87.7778 20.7427 87.0461 20.8087L86.6396 18.3529C87.3306 18.2209 87.8659 18.036 88.2453 17.7983C88.6247 17.5475 88.9092 17.2306 89.0989 16.8477C89.248 16.5176 89.3632 16.1347 89.4445 15.699C89.5393 15.2633 89.6071 14.8078 89.6477 14.3324C89.6884 13.8439 89.7087 13.3488 89.7087 12.8471C89.7222 12.3453 89.729 11.8634 89.729 11.4013V10.213H97.7575V20.6305H94.729V12.6292H92.6559Z" fill="#006CAE"/>
<path d="M107.879 12.6292H103.326V20.6305H100.297V10.213H107.879V12.6292Z" fill="#006CAE"/>
<path d="M113.288 18.5708C113.586 18.5708 113.87 18.5641 114.141 18.5509C114.412 18.5377 114.629 18.5179 114.792 18.4915V16.2535C114.67 16.2271 114.487 16.2007 114.243 16.1743C113.999 16.1479 113.775 16.1347 113.572 16.1347C113.288 16.1347 113.017 16.1545 112.759 16.1941C112.515 16.2205 112.299 16.28 112.109 16.3724C111.919 16.4648 111.77 16.5902 111.662 16.7487C111.553 16.9071 111.499 17.1052 111.499 17.3428C111.499 17.805 111.655 18.1284 111.967 18.3133C112.292 18.4849 112.732 18.5708 113.288 18.5708ZM113.044 9.9357C113.938 9.9357 114.683 10.0347 115.28 10.2328C115.876 10.4308 116.35 10.7147 116.702 11.0844C117.068 11.4541 117.326 11.903 117.475 12.4312C117.624 12.9593 117.698 13.5468 117.698 14.1938V20.3334C117.265 20.4258 116.662 20.5315 115.889 20.6503C115.117 20.7823 114.182 20.8483 113.084 20.8483C112.393 20.8483 111.763 20.7889 111.194 20.6701C110.639 20.5513 110.158 20.3598 109.751 20.0957C109.345 19.8185 109.033 19.462 108.816 19.0263C108.599 18.5906 108.491 18.0558 108.491 17.4221C108.491 16.8147 108.613 16.2998 108.857 15.8772C109.114 15.4547 109.453 15.1181 109.873 14.8672C110.293 14.6163 110.774 14.4381 111.316 14.3324C111.858 14.2136 112.42 14.1542 113.003 14.1542C113.396 14.1542 113.742 14.174 114.04 14.2136C114.351 14.24 114.602 14.2796 114.792 14.3324V14.0552C114.792 13.5534 114.636 13.1507 114.324 12.8471C114.013 12.5434 113.471 12.3915 112.698 12.3915C112.183 12.3915 111.675 12.4312 111.174 12.5104C110.672 12.5764 110.239 12.6754 109.873 12.8074L109.487 10.4308C109.663 10.378 109.88 10.3252 110.137 10.2724C110.408 10.2064 110.7 10.1536 111.011 10.1139C111.323 10.0611 111.648 10.0215 111.987 9.99512C112.339 9.95551 112.691 9.9357 113.044 9.9357Z" fill="#006CAE"/>
<path d="M130.177 9.51959C130.137 10.4042 130.083 11.2955 130.015 12.1933C129.961 13.0779 129.852 13.9361 129.69 14.768C129.541 15.5998 129.317 16.3788 129.019 17.105C128.734 17.8312 128.335 18.4715 127.82 19.0261C127.318 19.5806 126.688 20.0229 125.929 20.353C125.171 20.6831 124.242 20.8679 123.145 20.9076L122.799 18.2141C123.775 18.1084 124.527 17.8708 125.055 17.5011C125.584 17.1182 125.984 16.5372 126.255 15.7582C126.593 14.7944 126.831 13.5532 126.966 12.0348C127.115 10.5032 127.19 8.7934 127.19 6.90531H136.803V20.6303H133.633V9.51959H130.177Z" fill="#006CAE"/>
<path d="M143.634 18.5705C143.932 18.5705 144.217 18.5639 144.488 18.5507C144.759 18.5375 144.976 18.5177 145.138 18.4913V16.2533C145.016 16.2269 144.833 16.2005 144.589 16.1741C144.345 16.1477 144.122 16.1345 143.919 16.1345C143.634 16.1345 143.363 16.1543 143.106 16.1939C142.862 16.2203 142.645 16.2798 142.455 16.3722C142.266 16.4646 142.116 16.59 142.008 16.7485C141.9 16.9069 141.845 17.105 141.845 17.3426C141.845 17.8047 142.001 18.1282 142.313 18.3131C142.638 18.4847 143.079 18.5705 143.634 18.5705ZM143.39 9.9355C144.284 9.9355 145.03 10.0345 145.626 10.2326C146.222 10.4306 146.696 10.7145 147.049 11.0842C147.415 11.4539 147.672 11.9028 147.821 12.431C147.97 12.9591 148.045 13.5466 148.045 14.1936V20.3332C147.611 20.4256 147.008 20.5313 146.236 20.6501C145.463 20.7821 144.528 20.8481 143.431 20.8481C142.74 20.8481 142.11 20.7887 141.541 20.6699C140.985 20.5511 140.504 20.3596 140.097 20.0955C139.691 19.8183 139.379 19.4618 139.163 19.0261C138.946 18.5904 138.837 18.0556 138.837 17.4218C138.837 16.8145 138.959 16.2996 139.203 15.877C139.461 15.4545 139.799 15.1178 140.219 14.867C140.639 14.6161 141.121 14.4379 141.663 14.3322C142.205 14.2134 142.767 14.154 143.35 14.154C143.742 14.154 144.088 14.1738 144.386 14.2134C144.698 14.2398 144.948 14.2794 145.138 14.3322V14.055C145.138 13.5532 144.982 13.1505 144.671 12.8469C144.359 12.5432 143.817 12.3913 143.045 12.3913C142.53 12.3913 142.022 12.431 141.52 12.5102C141.019 12.5762 140.585 12.6752 140.219 12.8072L139.833 10.4306C140.009 10.3778 140.226 10.325 140.484 10.2722C140.755 10.2062 141.046 10.1534 141.358 10.1137C141.669 10.0609 141.995 10.0213 142.333 9.99491C142.686 9.9553 143.038 9.9355 143.39 9.9355Z" fill="#006CAE"/>
<path d="M160.214 10.2128V20.6303H157.165C157.165 19.9701 157.172 19.3165 157.186 18.6696C157.199 18.0094 157.213 17.402 157.226 16.8475C157.24 16.293 157.253 15.811 157.267 15.4017C157.294 14.9792 157.308 14.6689 157.308 14.4709C156.915 15.0122 156.522 15.5602 156.129 16.1147C155.736 16.6693 155.356 17.2172 154.991 17.7585C154.638 18.2867 154.299 18.795 153.974 19.2835C153.663 19.7721 153.385 20.221 153.141 20.6303H150.478V10.2128H153.507C153.507 10.8729 153.5 11.5067 153.486 12.1141C153.486 12.7082 153.48 13.2496 153.466 13.7381C153.453 14.2266 153.439 14.6557 153.426 15.0254C153.412 15.3819 153.405 15.6592 153.405 15.8572C154.218 14.6953 154.963 13.6523 155.641 12.728C156.332 11.8038 157.003 10.9654 157.653 10.2128H160.214ZM155.397 8.7868C154.963 8.7868 154.543 8.72738 154.137 8.60855C153.744 8.47652 153.385 8.29167 153.06 8.05401C152.734 7.80314 152.463 7.50606 152.247 7.16278C152.043 6.80628 151.921 6.40358 151.881 5.95466L153.974 5.41992C154.083 5.92165 154.259 6.27814 154.503 6.4894C154.76 6.70065 155.058 6.80628 155.397 6.80628C155.749 6.80628 156.047 6.71386 156.291 6.52901C156.549 6.33096 156.732 5.96787 156.84 5.43973L158.913 5.97446C158.873 6.42338 158.744 6.82609 158.527 7.18258C158.324 7.52587 158.06 7.81635 157.734 8.05401C157.423 8.29167 157.064 8.47652 156.657 8.60855C156.251 8.72738 155.831 8.7868 155.397 8.7868Z" fill="#006CAE"/>
<path d="M171.965 20.6303H168.937V16.5108H165.786V20.6303H162.758V10.2128H165.786V14.0946H168.937V10.2128H171.965V20.6303Z" fill="#006CAE"/>
<path d="M65.7665 28.8824C65.6657 28.7234 65.5457 28.5527 65.4066 28.3704C65.2722 28.1833 65.1234 27.9986 64.9602 27.8162C64.8019 27.6292 64.6363 27.4515 64.4635 27.2831C64.2908 27.1101 64.118 26.9581 63.9452 26.8272V28.8824H62.8223V24.0215H63.9452V25.8592C64.238 25.56 64.5307 25.249 64.8235 24.9263C65.121 24.599 65.397 24.2974 65.6513 24.0215H66.983C66.6423 24.4143 66.2992 24.7931 65.9536 25.1578C65.6129 25.5226 65.253 25.8896 64.8739 26.2591C65.2722 26.5817 65.6561 26.9652 66.0256 27.4094C66.4 27.8536 66.7575 28.3446 67.0982 28.8824H65.7665Z" fill="#BC002D"/>
<path d="M72.7246 27.0657C72.7246 26.743 72.6502 26.4859 72.5014 26.2941C72.3526 26.0977 72.1319 25.9995 71.8391 25.9995C71.7432 25.9995 71.6544 26.0042 71.5728 26.0136C71.4912 26.0182 71.424 26.0252 71.3712 26.0346V27.9215C71.4384 27.9635 71.5248 27.9986 71.6304 28.0267C71.7408 28.0547 71.8511 28.0688 71.9615 28.0688C72.4702 28.0688 72.7246 27.7344 72.7246 27.0657ZM73.8187 27.0376C73.8187 27.3229 73.7828 27.5824 73.7108 27.8162C73.6388 28.05 73.5332 28.2511 73.394 28.4195C73.2549 28.5878 73.0821 28.7187 72.8757 28.8123C72.6694 28.9058 72.4318 28.9526 72.1631 28.9526C72.0143 28.9526 71.8751 28.9385 71.7456 28.9105C71.616 28.8824 71.4912 28.8427 71.3712 28.7912V30.1801H70.2986V25.3191C70.3946 25.2911 70.505 25.2654 70.6298 25.242C70.7546 25.2139 70.8841 25.1905 71.0185 25.1718C71.1577 25.1531 71.2969 25.1391 71.436 25.1297C71.58 25.1157 71.7168 25.1087 71.8463 25.1087C72.1583 25.1087 72.4366 25.1555 72.6814 25.249C72.9261 25.3378 73.1325 25.4664 73.3005 25.6348C73.4684 25.7984 73.5956 25.9995 73.682 26.238C73.7732 26.4765 73.8187 26.743 73.8187 27.0376Z" fill="#BC002D"/>
<path d="M80.6323 25.1929C80.4163 25.9037 80.1908 26.57 79.9556 27.192C79.7205 27.8139 79.4637 28.4171 79.1854 29.0017C79.0846 29.2121 78.9838 29.3898 78.8831 29.5347C78.7823 29.6844 78.6719 29.806 78.5519 29.8995C78.4319 29.9977 78.2952 30.0678 78.1416 30.1099C77.9928 30.1567 77.8177 30.1801 77.6161 30.1801C77.4481 30.1801 77.2922 30.1637 77.1482 30.131C77.009 30.1029 76.8938 30.0702 76.8027 30.0328L76.9898 29.1981C77.1002 29.2355 77.1986 29.2612 77.285 29.2752C77.3714 29.2892 77.4625 29.2963 77.5585 29.2963C77.7505 29.2963 77.8968 29.2448 77.9976 29.1419C78.1032 29.0437 78.192 28.9058 78.264 28.7281C78.0192 28.2605 77.7745 27.7367 77.5297 27.1569C77.285 26.5724 77.0546 25.9177 76.8387 25.1929H77.976C78.024 25.3752 78.0792 25.574 78.1416 25.7891C78.2088 25.9995 78.2784 26.2146 78.3504 26.4344C78.4223 26.6495 78.4943 26.8599 78.5663 27.0657C78.6431 27.2715 78.7151 27.4585 78.7823 27.6268C78.8447 27.4585 78.9094 27.2715 78.9766 27.0657C79.0438 26.8599 79.1086 26.6495 79.171 26.4344C79.2382 26.2146 79.3006 25.9995 79.3582 25.7891C79.4205 25.574 79.4757 25.3752 79.5237 25.1929H80.6323Z" fill="#BC002D"/>
<path d="M87.2829 25.1929V28.8824H86.2031C86.2031 28.6486 86.2055 28.4171 86.2103 28.188C86.2151 27.9542 86.2199 27.7391 86.2247 27.5427C86.2295 27.3463 86.2343 27.1756 86.2391 27.0306C86.2487 26.881 86.2535 26.7711 86.2535 26.701C86.1143 26.8927 85.9751 27.0867 85.836 27.2831C85.6968 27.4795 85.5624 27.6736 85.4328 27.8653C85.3081 28.0524 85.1881 28.2324 85.0729 28.4054C84.9625 28.5785 84.8642 28.7375 84.7778 28.8824H83.8348V25.1929H84.9073C84.9073 25.4267 84.9049 25.6511 84.9001 25.8663C84.9001 26.0767 84.8977 26.2684 84.893 26.4414C84.8882 26.6144 84.8834 26.7664 84.8786 26.8974C84.8738 27.0236 84.8714 27.1218 84.8714 27.192C85.1593 26.7805 85.4232 26.411 85.6632 26.0837C85.9079 25.7564 86.1455 25.4594 86.3759 25.1929H87.2829Z" fill="#BC002D"/>
<path d="M90.7392 25.3121C90.9072 25.2513 91.1015 25.2022 91.3223 25.1648C91.543 25.1274 91.783 25.1087 92.0421 25.1087C92.2389 25.1087 92.4309 25.1274 92.618 25.1648C92.8052 25.1976 92.9708 25.256 93.1147 25.3402C93.2635 25.4197 93.3811 25.5272 93.4675 25.6628C93.5586 25.7938 93.6042 25.9598 93.6042 26.1609C93.6042 26.3432 93.561 26.4999 93.4747 26.6308C93.3883 26.7571 93.2659 26.8623 93.1075 26.9465C93.3187 27.0353 93.4747 27.1522 93.5754 27.2972C93.6762 27.4421 93.7266 27.6268 93.7266 27.8513C93.7266 28.0617 93.681 28.2394 93.5898 28.3844C93.4986 28.5247 93.3763 28.6393 93.2227 28.7281C93.0691 28.8169 92.894 28.8801 92.6972 28.9175C92.5004 28.9596 92.2965 28.9806 92.0853 28.9806C91.9606 28.9806 91.831 28.9736 91.6966 28.9596C91.5622 28.9502 91.4303 28.9339 91.3007 28.9105C91.1759 28.8918 91.0559 28.866 90.9408 28.8333C90.8256 28.8006 90.7224 28.7655 90.6312 28.7281L90.8256 27.9144C90.9264 27.9518 91.0799 27.9963 91.2863 28.0477C91.4974 28.0991 91.735 28.1249 91.9989 28.1249C92.4309 28.1249 92.6468 28.008 92.6468 27.7741C92.6468 27.6947 92.63 27.6315 92.5964 27.5848C92.5628 27.5333 92.5172 27.4936 92.4597 27.4655C92.4069 27.4375 92.3445 27.4188 92.2725 27.4094C92.2005 27.4001 92.1285 27.3954 92.0565 27.3954H91.2143V26.6519H92.0637C92.2365 26.6519 92.3565 26.6191 92.4237 26.5537C92.4956 26.4835 92.5316 26.404 92.5316 26.3152C92.5316 26.2263 92.4908 26.1468 92.4093 26.0767C92.3325 26.0019 92.1885 25.9645 91.9774 25.9645C91.7662 25.9645 91.567 25.9832 91.3799 26.0206C91.1927 26.058 91.0415 26.093 90.9264 26.1258L90.7392 25.3121Z" fill="#BC002D"/>
<path d="M100.372 28.8824H99.2991V27.4234H98.1834V28.8824H97.1108V25.1929H98.1834V26.5677H99.2991V25.1929H100.372V28.8824Z" fill="#BC002D"/>
<path d="M105.452 28.1529C105.558 28.1529 105.659 28.1506 105.755 28.1459C105.851 28.1412 105.927 28.1342 105.985 28.1249V27.3322C105.942 27.3229 105.877 27.3135 105.791 27.3042C105.704 27.2948 105.625 27.2902 105.553 27.2902C105.452 27.2902 105.356 27.2972 105.265 27.3112C105.179 27.3206 105.102 27.3416 105.035 27.3743C104.968 27.4071 104.915 27.4515 104.876 27.5076C104.838 27.5637 104.819 27.6339 104.819 27.718C104.819 27.8817 104.874 27.9963 104.984 28.0617C105.1 28.1225 105.256 28.1529 105.452 28.1529ZM105.366 25.0947C105.683 25.0947 105.947 25.1297 106.158 25.1999C106.369 25.27 106.537 25.3706 106.662 25.5015C106.791 25.6324 106.882 25.7914 106.935 25.9785C106.988 26.1655 107.014 26.3736 107.014 26.6028V28.7772C106.861 28.8099 106.647 28.8473 106.374 28.8894C106.1 28.9362 105.769 28.9596 105.38 28.9596C105.136 28.9596 104.912 28.9385 104.711 28.8964C104.514 28.8544 104.344 28.7866 104.2 28.693C104.056 28.5948 103.945 28.4686 103.869 28.3143C103.792 28.1599 103.753 27.9706 103.753 27.7461C103.753 27.531 103.797 27.3486 103.883 27.199C103.974 27.0493 104.094 26.9301 104.243 26.8412C104.392 26.7524 104.562 26.6893 104.754 26.6519C104.946 26.6098 105.145 26.5887 105.351 26.5887C105.491 26.5887 105.613 26.5957 105.719 26.6098C105.829 26.6191 105.918 26.6332 105.985 26.6519V26.5537C105.985 26.376 105.93 26.2333 105.819 26.1258C105.709 26.0182 105.517 25.9645 105.244 25.9645C105.061 25.9645 104.881 25.9785 104.704 26.0065C104.526 26.0299 104.372 26.065 104.243 26.1118L104.106 25.27C104.169 25.2513 104.245 25.2326 104.336 25.2139C104.432 25.1905 104.536 25.1718 104.646 25.1578C104.756 25.1391 104.872 25.1251 104.992 25.1157C105.116 25.1017 105.241 25.0947 105.366 25.0947Z" fill="#BC002D"/>
<path d="M112.181 27.5707C112.027 27.7905 111.891 28.0126 111.771 28.2371C111.651 28.4569 111.536 28.672 111.425 28.8824H110.324C110.463 28.5785 110.605 28.3002 110.749 28.0477C110.892 27.7952 111.032 27.5777 111.166 27.3954C110.964 27.2925 110.804 27.1616 110.684 27.0026C110.564 26.8389 110.504 26.6355 110.504 26.3923C110.504 25.9808 110.655 25.6652 110.957 25.4454C111.264 25.2256 111.687 25.1157 112.224 25.1157C112.344 25.1157 112.476 25.1204 112.62 25.1297C112.769 25.1391 112.915 25.1531 113.059 25.1718C113.203 25.1905 113.34 25.2116 113.47 25.235C113.604 25.2537 113.717 25.2747 113.808 25.2981V28.8824H112.735V27.5707H112.181ZM112.735 25.9434C112.687 25.9387 112.613 25.9341 112.512 25.9294C112.411 25.92 112.325 25.9154 112.253 25.9154C111.989 25.9154 111.809 25.9598 111.713 26.0486C111.617 26.1328 111.569 26.2427 111.569 26.3783C111.569 26.4625 111.588 26.535 111.627 26.5957C111.665 26.6519 111.716 26.6986 111.778 26.736C111.84 26.7688 111.91 26.7921 111.987 26.8062C112.063 26.8202 112.14 26.8272 112.217 26.8272H112.735V25.9434Z" fill="#BC002D"/>
<path d="M125.896 28.8824C125.795 28.7234 125.675 28.5527 125.536 28.3704C125.402 28.1833 125.253 27.9986 125.09 27.8162C124.931 27.6292 124.766 27.4515 124.593 27.2831C124.42 27.1101 124.247 26.9581 124.075 26.8272V28.8824H122.952V24.0215H124.075V25.8592C124.367 25.56 124.66 25.249 124.953 24.9263C125.25 24.599 125.526 24.2974 125.781 24.0215H127.112C126.772 24.4143 126.429 24.7931 126.083 25.1578C125.742 25.5226 125.382 25.8896 125.003 26.2591C125.402 26.5817 125.785 26.9652 126.155 27.4094C126.529 27.8536 126.887 28.3446 127.228 28.8824H125.896Z" fill="#BC002D"/>
<path d="M132.998 27.0306C132.998 27.3206 132.954 27.5871 132.868 27.8303C132.782 28.0688 132.657 28.2745 132.494 28.4475C132.331 28.6159 132.134 28.7468 131.903 28.8403C131.678 28.9339 131.424 28.9806 131.14 28.9806C130.862 28.9806 130.608 28.9339 130.377 28.8403C130.152 28.7468 129.957 28.6159 129.794 28.4475C129.631 28.2745 129.504 28.0688 129.413 27.8303C129.322 27.5871 129.276 27.3206 129.276 27.0306C129.276 26.7407 129.322 26.4765 129.413 26.238C129.509 25.9995 129.638 25.7961 129.801 25.6278C129.969 25.4594 130.166 25.3285 130.392 25.235C130.622 25.1414 130.872 25.0947 131.14 25.0947C131.414 25.0947 131.664 25.1414 131.889 25.235C132.119 25.3285 132.316 25.4594 132.479 25.6278C132.643 25.7961 132.77 25.9995 132.861 26.238C132.952 26.4765 132.998 26.7407 132.998 27.0306ZM131.903 27.0306C131.903 26.708 131.836 26.4555 131.702 26.2731C131.572 26.086 131.385 25.9925 131.14 25.9925C130.896 25.9925 130.706 26.086 130.572 26.2731C130.437 26.4555 130.37 26.708 130.37 27.0306C130.37 27.3533 130.437 27.6105 130.572 27.8022C130.706 27.9893 130.896 28.0828 131.14 28.0828C131.385 28.0828 131.572 27.9893 131.702 27.8022C131.836 27.6105 131.903 27.3533 131.903 27.0306Z" fill="#BC002D"/>
<path d="M136.838 26.7571C136.828 26.9207 136.818 27.0984 136.809 27.2902C136.799 27.4819 136.79 27.6759 136.78 27.8724C136.775 28.0641 136.768 28.2488 136.758 28.4265C136.754 28.5995 136.749 28.7515 136.744 28.8824H135.7C135.71 28.6252 135.724 28.3353 135.743 28.0126C135.767 27.69 135.791 27.3626 135.815 27.0306C135.844 26.6939 135.873 26.3666 135.902 26.0486C135.935 25.7306 135.966 25.4454 135.995 25.1929H136.888C137.094 25.5202 137.284 25.8592 137.457 26.21C137.629 26.5607 137.812 26.9465 138.004 27.3673C138.205 26.9184 138.402 26.5046 138.594 26.1258C138.786 25.7423 138.959 25.4314 139.112 25.1929H140.019C140.053 25.4454 140.084 25.7306 140.113 26.0486C140.146 26.3666 140.175 26.6939 140.199 27.0306C140.228 27.3626 140.252 27.69 140.271 28.0126C140.29 28.3353 140.305 28.6252 140.314 28.8824H139.249C139.239 28.5177 139.225 28.1553 139.206 27.7952C139.191 27.4351 139.177 27.0867 139.163 26.7501L138.371 28.4475H137.629L136.838 26.7571Z" fill="#BC002D"/>
<path d="M146.453 25.1929V28.8824H145.38V26.0627H144.265V28.8824H143.192V25.1929H146.453Z" fill="#BC002D"/>
<path d="M150.85 28.1529C150.955 28.1529 151.056 28.1506 151.152 28.1459C151.248 28.1412 151.325 28.1342 151.382 28.1249V27.3322C151.339 27.3229 151.274 27.3135 151.188 27.3042C151.102 27.2948 151.022 27.2902 150.95 27.2902C150.85 27.2902 150.754 27.2972 150.662 27.3112C150.576 27.3206 150.499 27.3416 150.432 27.3743C150.365 27.4071 150.312 27.4515 150.274 27.5076C150.235 27.5637 150.216 27.6339 150.216 27.718C150.216 27.8817 150.271 27.9963 150.382 28.0617C150.497 28.1225 150.653 28.1529 150.85 28.1529ZM150.763 25.0947C151.08 25.0947 151.344 25.1297 151.555 25.1999C151.766 25.27 151.934 25.3706 152.059 25.5015C152.189 25.6324 152.28 25.7914 152.333 25.9785C152.385 26.1655 152.412 26.3736 152.412 26.6028V28.7772C152.258 28.8099 152.045 28.8473 151.771 28.8894C151.498 28.9362 151.166 28.9596 150.778 28.9596C150.533 28.9596 150.31 28.9385 150.108 28.8964C149.911 28.8544 149.741 28.7866 149.597 28.693C149.453 28.5948 149.343 28.4686 149.266 28.3143C149.189 28.1599 149.151 27.9706 149.151 27.7461C149.151 27.531 149.194 27.3486 149.28 27.199C149.372 27.0493 149.492 26.9301 149.64 26.8412C149.789 26.7524 149.959 26.6893 150.151 26.6519C150.343 26.6098 150.543 26.5887 150.749 26.5887C150.888 26.5887 151.01 26.5957 151.116 26.6098C151.226 26.6191 151.315 26.6332 151.382 26.6519V26.5537C151.382 26.376 151.327 26.2333 151.217 26.1258C151.106 26.0182 150.914 25.9645 150.641 25.9645C150.459 25.9645 150.279 25.9785 150.101 26.0065C149.923 26.0299 149.77 26.065 149.64 26.1118L149.504 25.27C149.566 25.2513 149.643 25.2326 149.734 25.2139C149.83 25.1905 149.933 25.1718 150.043 25.1578C150.154 25.1391 150.269 25.1251 150.389 25.1157C150.514 25.1017 150.638 25.0947 150.763 25.0947Z" fill="#BC002D"/>
<path d="M158.586 28.8824H157.514V27.4234H156.398V28.8824H155.325V25.1929H156.398V26.5677H157.514V25.1929H158.586V28.8824Z" fill="#BC002D"/>
<path d="M164.984 25.1929V28.8824H163.904C163.904 28.6486 163.907 28.4171 163.911 28.188C163.916 27.9542 163.921 27.7391 163.926 27.5427C163.931 27.3463 163.935 27.1756 163.94 27.0306C163.95 26.881 163.955 26.7711 163.955 26.701C163.816 26.8927 163.676 27.0867 163.537 27.2831C163.398 27.4795 163.264 27.6736 163.134 27.8653C163.009 28.0524 162.889 28.2324 162.774 28.4054C162.664 28.5785 162.565 28.7375 162.479 28.8824H161.536V25.1929H162.609C162.609 25.4267 162.606 25.6511 162.601 25.8663C162.601 26.0767 162.599 26.2684 162.594 26.4414C162.589 26.6144 162.585 26.7664 162.58 26.8974C162.575 27.0236 162.573 27.1218 162.573 27.192C162.861 26.7805 163.124 26.411 163.364 26.0837C163.609 25.7564 163.847 25.4594 164.077 25.1929H164.984Z" fill="#BC002D"/>
<path d="M169.506 27.5707C169.352 27.7905 169.215 28.0126 169.095 28.2371C168.975 28.4569 168.86 28.672 168.75 28.8824H167.649C167.788 28.5785 167.929 28.3002 168.073 28.0477C168.217 27.7952 168.356 27.5777 168.491 27.3954C168.289 27.2925 168.128 27.1616 168.008 27.0026C167.889 26.8389 167.829 26.6355 167.829 26.3923C167.829 25.9808 167.98 25.6652 168.282 25.4454C168.589 25.2256 169.011 25.1157 169.549 25.1157C169.669 25.1157 169.801 25.1204 169.945 25.1297C170.094 25.1391 170.24 25.1531 170.384 25.1718C170.528 25.1905 170.665 25.2116 170.794 25.235C170.929 25.2537 171.041 25.2747 171.133 25.2981V28.8824H170.06V27.5707H169.506ZM170.06 25.9434C170.012 25.9387 169.938 25.9341 169.837 25.9294C169.736 25.92 169.65 25.9154 169.578 25.9154C169.314 25.9154 169.134 25.9598 169.038 26.0486C168.942 26.1328 168.894 26.2427 168.894 26.3783C168.894 26.4625 168.913 26.535 168.952 26.5957C168.99 26.6519 169.04 26.6986 169.103 26.736C169.165 26.7688 169.235 26.7921 169.311 26.8062C169.388 26.8202 169.465 26.8272 169.542 26.8272H170.06V25.9434Z" fill="#BC002D"/>
</svg>
