<svg width="30" height="30" viewBox="0 0 30 30" fill="none" xmlns="http://www.w3.org/2000/svg">
    <path fill-rule="evenodd" clip-rule="evenodd"
          d="M3.20711 1.79289C2.81658 1.40237 2.18342 1.40237 1.79289 1.79289C1.40237 2.18342 1.40237 2.81658 1.79289 3.20711L7.58579 9H3.75C3.19772 9 2.75 9.44772 2.75 10C2.75 10.5523 3.19772 11 3.75 11H10C10.5523 11 11 10.5523 11 10V3.75C11 3.19772 10.5523 2.75 10 2.75C9.44772 2.75 9 3.19772 9 3.75V7.58579L3.20711 1.79289ZM20.8333 14.4099L18.905 11.4635L21.2277 6.04393C22.3225 6.19724 23.3269 6.73774 24.0583 7.56842C24.8018 8.41303 25.2121 9.49972 25.2121 10.625C25.2121 14.5867 23.6384 18.386 20.837 21.1874C18.0357 23.9887 14.2363 25.5624 10.2747 25.5625L13.0763 20.5699L14.0093 21.1921L14.012 21.1939C14.2891 21.3802 14.6097 21.4913 14.9426 21.5165C15.2767 21.5418 15.6115 21.4796 15.9142 21.3362L15.9213 21.3328L15.9213 21.3328C18.1154 20.2719 19.89 18.5054 20.9609 16.3161L20.0625 15.8767L20.9642 16.3092C21.1085 16.0083 21.1723 15.6752 21.1494 15.3423C21.1265 15.0104 21.0182 14.6901 20.835 14.4125L20.8333 14.4099ZM13.0762 20.5699L13.0763 20.5699L14.0579 18.8207L15.0937 19.5113C16.8506 18.6501 18.2742 17.233 19.1433 15.4799L17.4147 12.8387L21.2277 6.04393L17.4147 12.8387L17.2132 12.5307C17.0382 12.2634 16.9321 11.9569 16.9042 11.6386C16.8764 11.3204 16.9276 11.0001 17.0535 10.7065L19.4066 5.21592L19.4073 5.21418C19.5714 4.82896 19.8561 4.50736 20.2186 4.29771C20.5816 4.08776 21.0031 4.00147 21.4194 4.05183L21.426 4.05268C23.0248 4.257 24.4943 5.03707 25.5594 6.24684C26.6245 7.45661 27.212 9.01311 27.2121 10.6249V10.625C27.2121 15.1171 25.4276 19.4252 22.2512 22.6016C19.0748 25.778 14.7667 27.5625 10.2746 27.5625H10.2746C8.66277 27.5624 7.10627 26.9748 5.8965 25.9097C4.68673 24.8447 3.90665 23.3752 3.70234 21.7764L3.70231 21.7764L3.70151 21.7697C3.65113 21.3534 3.73742 20.932 3.94738 20.5689C4.15696 20.2065 4.47843 19.9219 4.86349 19.7578L4.86561 19.7569L10.3514 17.4059C10.6476 17.2789 10.9709 17.2279 11.2918 17.2574C11.6128 17.2868 11.9213 17.3959 12.1895 17.5748L14.0579 18.8206L13.0762 20.5699ZM13.0762 20.5699L11.1081 19.2575L5.69359 21.578C5.8469 22.6728 6.3874 23.6773 7.21808 24.4086C8.06268 25.1522 9.14935 25.5624 10.2746 25.5625L13.0762 20.5699ZM17.4147 12.8387L14.0579 18.8206L14.0579 18.8207L17.4147 12.8387L17.4147 12.8387Z"
          fill="white"/>
</svg>
