<svg width="22" height="24" viewBox="0 0 22 24" fill="none" xmlns="http://www.w3.org/2000/svg">
    <path fill-rule="evenodd" clip-rule="evenodd"
          d="M7 7.375C7 4.7067 8.89833 2.75 11 2.75C13.1017 2.75 15 4.7067 15 7.375C15 10.0433 13.1017 12 11 12C8.89833 12 7 10.0433 7 7.375ZM11 0.75C7.57882 0.75 5 3.83009 5 7.375C5 10.9199 7.57882 14 11 14C14.4212 14 17 10.9199 17 7.375C17 3.83009 14.4212 0.75 11 0.75ZM19.9379 22H2.0621C2.17821 21.1206 2.44853 20.4621 2.79965 19.9592C3.27427 19.2796 3.95619 18.7992 4.81275 18.4616C6.58412 17.7633 8.87883 17.75 10.9996 17.75C13.1202 17.75 15.4151 17.7634 17.1867 18.4616C18.0435 18.7993 18.7255 19.2797 19.2002 19.9593C19.5514 20.4621 19.8218 21.1207 19.9379 22ZM10.9996 15.75L10.9089 15.75C8.89663 15.7498 6.23928 15.7495 4.07931 16.6009C2.9539 17.0445 1.91279 17.736 1.15989 18.8142C0.405564 19.8944 0 21.2776 0 23C0 23.5523 0.447715 24 1 24H21C21.5523 24 22 23.5523 22 23C22 21.2776 21.5943 19.8943 20.8399 18.8141C20.0868 17.736 19.0456 17.0445 17.9201 16.6009C15.76 15.7496 13.1027 15.7498 11.0907 15.75L10.9996 15.75Z"
          fill="white"/>
</svg>
