<svg width="197" height="38" viewBox="0 0 197 38" fill="none" xmlns="http://www.w3.org/2000/svg">
    <path
        d="M7.4048 17.0205C6.77469 19.4551 6.77469 22.01 7.4048 24.4446C6.0794 22.749 4.19211 21.5823 2.08283 21.1548L0 20.7326L2.08282 20.3104C4.1921 19.8828 6.0794 18.7161 7.4048 17.0205Z"
        fill="white"/>
    <path
        d="M12.8362 9.77866C11.5741 10.5218 10.5218 11.5741 9.77866 12.8362C9.93114 11.592 9.63435 10.3343 8.94174 9.2895L8.25781 8.25781L9.28949 8.94173C10.3343 9.63435 11.592 9.93114 12.8362 9.77866Z"
        fill="white"/>
    <path
        d="M24.4436 7.4048C22.009 6.77469 19.4541 6.77469 17.0195 7.4048C18.7152 6.0794 19.8818 4.1921 20.3094 2.08282L20.7316 0L21.1538 2.08282C21.5813 4.1921 22.748 6.0794 24.4436 7.4048Z"
        fill="white"/>
    <path
        d="M28.6289 9.78061L30.1895 10.6995L33.2073 8.25977L32.1757 8.94369C31.1309 9.6363 29.8731 9.93309 28.6289 9.78061Z"
        fill="white"/>
    <path
        d="M17.8359 20.2473L31.3643 11.2947C33.0743 10.1631 35.3161 10.2509 36.9323 11.5128L36.6277 11.5463C35.0405 11.7212 33.4989 12.1855 32.0791 12.9162L17.8359 20.2473Z"
        fill="white"/>
    <path
        d="M17.3555 22.6588L38.6389 11.1543C41.7654 9.46426 45.661 10.3661 47.7268 13.2582C45.073 12.4776 42.2334 12.6164 39.6683 13.6518L17.3555 22.6588Z"
        fill="white"/>
    <path
        d="M17.6602 25.0578L36.0099 18.0802C44.4234 14.8809 53.2404 12.8658 62.2084 12.0927L62.3909 12.0769C62.5278 12.0651 62.6352 12.1924 62.6005 12.3254C61.7021 15.7695 59.8495 18.89 57.2561 21.3279L51.812 26.4453C50.0761 28.077 48.7386 30.086 47.9028 32.3169C48.1038 29.9342 48.9048 27.6412 50.2311 25.6516L54.2485 19.6256C54.9641 18.5523 54.1946 17.1146 52.9047 17.1146C48.8284 17.1146 44.7703 17.6585 40.8379 18.7318L17.6602 25.0578Z"
        fill="white"/>
    <path
        d="M51.1018 21.4521L48.4662 25.4635C47.1515 27.4646 46.245 29.7056 45.7989 32.058L40.0457 30.106C34.9039 28.3615 29.5577 27.2909 24.1406 26.9209C28.2789 26.4906 32.4546 26.5775 36.5714 27.1794L42.2379 28.0078C43.3459 28.1698 44.4741 27.9044 45.3936 27.2654C46.1121 26.766 46.7726 26.1881 47.363 25.5423L51.1018 21.4521Z"
        fill="white"/>
    <path
        d="M14.4609 28.6843C14.4609 28.6843 23.8616 26.9971 29.4436 28.8876C36.5266 31.2863 40.2308 33.8852 47.6502 34.8212C51.4839 35.3049 57.5411 35.098 57.5411 35.098C57.5411 35.098 51.1195 36.3091 46.5195 35.9155C39.4892 35.3139 34.9495 32.2998 28.6271 30.1613C23.3581 28.3791 14.4609 28.6843 14.4609 28.6843Z"
        fill="white"/>
    <path
        d="M16.3906 30.6127C16.3906 30.6127 22.6577 30.3717 26.9965 31.8179C31.3352 33.2642 33.007 33.9546 36.7944 35.4874C40.2538 36.8876 45.0423 37.5268 45.0423 37.5268C45.0423 37.5268 40.2148 37.7906 37.3313 36.8876C34.2277 35.9156 31.6107 34.9019 27.9778 33.5406C23.3808 31.8179 16.3906 30.6127 16.3906 30.6127Z"
        fill="white"/>
    <path
        d="M70.1211 11.9652C70.1211 11.77 70.2793 11.6118 70.4745 11.6118H75.3718C78.6917 11.6118 81.1697 12.6108 81.1697 15.6297C81.1697 17.1431 80.347 18.6526 78.9636 19.1507V19.2503C80.71 19.6648 82.0098 20.9112 82.0098 23.1041C82.0098 26.3737 79.3337 27.8864 75.7981 27.8864H70.4745C70.2793 27.8864 70.1211 27.7282 70.1211 27.533V11.9652ZM75.1392 18.2765C77.2568 18.2765 78.1659 17.426 78.1659 16.0744C78.1659 14.5876 77.173 14.0201 75.1896 14.0201H73.5435C73.3484 14.0201 73.1901 14.1783 73.1901 14.3735V17.9231C73.1901 18.1183 73.3484 18.2765 73.5435 18.2765H75.1392ZM75.5022 25.4778C77.7648 25.4778 79.006 24.6601 79.006 22.9234C79.006 21.2881 77.7984 20.5861 75.5022 20.5861H73.5435C73.3484 20.5861 73.1901 20.7444 73.1901 20.9395V25.1244C73.1901 25.3196 73.3484 25.4778 73.5435 25.4778H75.5022ZM83.8532 21.7608C83.8532 17.6769 86.628 15.3195 89.6669 15.3195C92.7058 15.3195 95.4806 17.6769 95.4806 21.7608C95.4806 25.8276 92.7058 28.1853 89.6669 28.1853C86.628 28.1853 83.8532 25.8276 83.8532 21.7608ZM92.3464 21.7608C92.3464 19.3941 91.3676 17.8266 89.6669 17.8266C87.9662 17.8266 86.9874 19.3941 86.9874 21.7608C86.9874 24.1276 87.9662 25.6779 89.6669 25.6779C91.3676 25.6779 92.3464 24.1276 92.3464 21.7608ZM96.9302 28.0461C96.7548 27.9931 96.645 27.8188 96.6787 27.6387L97.1456 25.1497C97.3261 25.1996 97.5067 25.2495 97.7364 25.2495C98.4624 25.2495 98.9727 24.6478 99.1539 23.1474C99.4612 20.75 99.7161 18.3452 99.9905 15.9326C100.011 15.7539 100.162 15.6184 100.342 15.6184H108.099C108.295 15.6184 108.453 15.7766 108.453 15.9718V27.533C108.453 27.7282 108.295 27.8864 108.099 27.8864H105.754C105.559 27.8864 105.401 27.7282 105.401 27.533V18.4131C105.401 18.2179 105.243 18.0597 105.047 18.0597L102.756 18.0597C102.577 18.0597 102.426 18.1924 102.405 18.3704C102.187 20.2292 101.967 22.1339 101.717 23.9873C101.34 26.7264 100.095 28.1853 97.9492 28.1853C97.5564 28.1853 97.2375 28.1388 96.9302 28.0461ZM112.3 15.6184H119.668C119.863 15.6184 120.021 15.7766 120.021 15.9718V17.7063C120.021 17.9015 119.863 18.0597 119.668 18.0597H115.352C115.157 18.0597 114.999 18.2179 114.999 18.4131V27.533C114.999 27.7282 114.84 27.8864 114.645 27.8864H112.3C112.104 27.8864 111.946 27.7282 111.946 27.533V15.9718C111.946 15.7766 112.104 15.6184 112.3 15.6184ZM120.861 24.5607C120.861 22.0063 122.886 20.6334 127.576 20.0749C127.772 20.0516 127.915 19.8731 127.891 19.6773C127.759 18.6001 127.194 17.7937 125.792 17.7937C124.747 17.7937 123.743 18.2173 122.749 18.7891C122.576 18.8888 122.355 18.8295 122.259 18.6539L121.484 17.2261C121.394 17.0602 121.447 16.8505 121.609 16.7539C122.948 15.9569 124.569 15.3195 126.362 15.3195C129.417 15.3195 130.972 17.1814 130.972 20.6911V27.533C130.972 27.7282 130.814 27.8864 130.619 27.8864H128.772C128.6 27.8864 128.453 27.7624 128.424 27.5929L128.245 26.5555H128.163C127.093 27.4857 125.874 28.1853 124.459 28.1853C122.309 28.1853 120.861 26.6793 120.861 24.5607ZM127.919 24.3692V22.3405C127.919 22.1257 127.728 21.9583 127.515 21.9903C124.736 22.4099 123.8 23.22 123.8 24.3221C123.8 25.3262 124.479 25.7768 125.453 25.7768C126.351 25.7768 127.026 25.3521 127.805 24.6314C127.877 24.5644 127.919 24.4679 127.919 24.3692ZM139.566 27.6393L139.965 25.6824C140.038 25.3268 140.212 25.198 140.395 25.2324C140.506 25.2531 140.625 25.2655 140.764 25.2655C141.587 25.2655 142.179 24.8324 142.936 21.2069C143.574 18.1328 144.089 15.092 144.661 11.9049C144.691 11.7364 144.835 11.6118 145.006 11.6118C146.339 11.6118 151.824 11.6118 153.271 11.6118C153.466 11.6118 153.622 11.77 153.622 11.9652V27.533C153.622 27.7282 153.464 27.8864 153.268 27.8864H150.906C150.711 27.8864 150.553 27.7282 150.553 27.533V14.5708C150.553 14.3756 150.395 14.2174 150.199 14.2174L147.377 14.2174C147.206 14.2174 147.058 14.3434 147.029 14.5125C146.603 16.9499 146.205 19.2204 145.777 21.5369C144.776 26.828 143.547 28.1853 141.204 28.1853C140.629 28.1853 140.212 28.1547 139.822 28.0536C139.64 28.0065 139.528 27.8233 139.566 27.6393ZM157.204 24.5607C157.204 22.0063 159.229 20.6334 163.92 20.0749C164.115 20.0516 164.258 19.8731 164.234 19.6773C164.102 18.6001 163.537 17.7937 162.135 17.7937C161.09 17.7937 160.087 18.2173 159.092 18.7891C158.919 18.8888 158.698 18.8295 158.602 18.6539L157.827 17.2261C157.737 17.0602 157.79 16.8505 157.953 16.7539C159.291 15.9569 160.912 15.3195 162.705 15.3195C165.76 15.3195 167.315 17.1814 167.315 20.6911V27.533C167.315 27.7282 167.157 27.8864 166.962 27.8864H165.115C164.943 27.8864 164.796 27.7624 164.767 27.5929L164.588 26.5555H164.506C163.436 27.4857 162.217 28.1853 160.802 28.1853C158.652 28.1853 157.204 26.6793 157.204 24.5607ZM164.263 24.3692V22.3405C164.263 22.1257 164.071 21.9583 163.858 21.9903C161.079 22.4099 160.143 23.22 160.143 24.3221C160.143 25.3262 160.822 25.7768 161.796 25.7768C162.694 25.7768 163.369 25.3521 164.148 24.6314C164.22 24.5644 164.263 24.4679 164.263 24.3692ZM171.424 15.6184H173.672C173.867 15.6184 174.026 15.7766 174.026 15.9718V19.6253C174.026 20.8797 173.879 22.5152 173.764 24.0434H173.847C174.257 23.2991 174.928 22.1924 175.324 21.4617C175.327 21.4557 175.328 21.4532 175.332 21.4474C175.447 21.2636 178.313 16.7057 178.894 15.7811C178.959 15.6782 179.07 15.6184 179.192 15.6184H181.434C181.629 15.6184 181.788 15.7766 181.788 15.9718V27.533C181.788 27.7282 181.629 27.8864 181.434 27.8864H179.187C178.992 27.8864 178.833 27.7282 178.833 27.533V23.8795C178.833 22.6249 178.98 21.0058 179.111 19.4612H179.012C178.602 20.2056 177.947 21.329 177.551 22.0435C177.548 22.0491 177.547 22.051 177.544 22.0564L174.1 27.51C173.9 27.8268 173.789 27.8864 173.668 27.8864H171.424C171.229 27.8864 171.071 27.7282 171.071 27.533V15.9718C171.071 15.7766 171.229 15.6184 171.424 15.6184ZM172.808 9.64063L174.499 9.64063C174.686 9.64062 174.836 9.78707 174.851 9.97361C174.951 11.1779 175.374 11.9385 176.535 11.9385C177.697 11.9385 178.12 11.1779 178.22 9.97361C178.235 9.78707 178.385 9.64062 178.573 9.64062L180.263 9.64063C180.476 9.64063 180.635 9.82623 180.615 10.0376C180.416 12.1186 179.18 13.6221 176.535 13.6221C173.891 13.6221 172.655 12.1186 172.456 10.0376C172.436 9.82624 172.595 9.64063 172.808 9.64063ZM186.07 15.6184H188.415C188.611 15.6184 188.769 15.7766 188.769 15.9718V19.8874C188.769 20.0826 188.927 20.2408 189.122 20.2408H192.994C193.189 20.2408 193.347 20.0826 193.347 19.8874V15.9718C193.347 15.7766 193.505 15.6184 193.701 15.6184H196.046C196.241 15.6184 196.399 15.7766 196.399 15.9718V27.533C196.399 27.7282 196.241 27.8864 196.046 27.8864H193.701C193.505 27.8864 193.347 27.7282 193.347 27.533V23.2989C193.347 23.1037 193.189 22.9455 192.994 22.9455H189.122C188.927 22.9455 188.769 23.1037 188.769 23.2989V27.533C188.769 27.7282 188.611 27.8864 188.415 27.8864H186.07C185.874 27.8864 185.716 27.7282 185.716 27.533V15.9718C185.716 15.7766 185.874 15.6184 186.07 15.6184Z"
        fill="white"/>
    <path d="M36.5435 15.792V17.0454L34.2344 17.8842V16.7995L36.5435 15.792Z" fill="white"/>
    <path d="M32.3457 17.625V18.5699L31.2852 18.9556V18.0878L32.3457 17.625Z" fill="white"/>
    <path d="M29.9061 18.6904V19.457L29.0625 19.7607V19.0568L29.9061 18.6904Z" fill="white"/>
    <path
        d="M27.1774 12.1882C25.1211 10.6505 22.5672 9.93079 20.0105 10.1686C17.4538 10.4063 15.0764 11.5846 13.3389 13.4752C11.6014 15.3657 10.6275 17.8339 10.6058 20.4015C10.5842 22.9691 11.5164 25.4533 13.2218 27.3729"
        stroke="white" stroke-width="3.26629"/>
</svg>
