<svg width="24" height="24" viewBox="0 0 24 24" fill="none" xmlns="http://www.w3.org/2000/svg">
<path d="M4.30663 18.8183C-0.0280445 14.587 -0.111857 7.64283 4.1195 3.30811C8.35086 -1.02661 15.295 -1.11037 19.6297 3.12098C19.6835 3.17358 19.7369 3.22673 19.7897 3.28041C24.0728 7.5637 24.0728 14.5081 19.7897 18.7914L15.8092 22.4697C13.6971 24.5153 10.3401 24.507 8.23822 22.4508L4.30663 18.8183ZM3.06027 11.0359C3.05375 13.4173 4.00021 15.7022 5.68864 17.3815L9.61227 21.0069C10.9593 22.2943 13.0782 22.3026 14.4353 21.0259L18.4078 17.3545C21.9049 13.8422 21.8926 8.16 18.3803 4.66289C14.868 1.16578 9.1858 1.17802 5.68869 4.69031C4.00016 6.36956 3.05375 8.65458 3.06027 11.0359Z" fill="#4C88F8"/>
<circle cx="12" cy="10" r="3" fill="#4C88F8"/>
</svg>
