<svg width="40" height="40" viewBox="0 0 40 40" fill="none" xmlns="http://www.w3.org/2000/svg">
<circle cx="20" cy="20" r="20" fill="#4C88F8"/>
<path d="M20.9998 8.0001C17.8182 8.00354 14.768 9.26893 12.5183 11.5186C10.2686 13.7683 9.00319 16.8186 8.99975 20.0001C8.84675 28.9561 19.0308 34.9851 26.7908 30.4911L28.3438 29.6291L26.8008 28.7491C20.1008 25.0611 20.5908 14.8791 27.6008 11.8431L29.2218 11.1121L27.7548 10.1061C25.7681 8.73664 23.4127 8.00229 20.9998 8.0001ZM20.9998 30.0001C18.3485 29.9972 15.8066 28.9427 13.9319 27.068C12.0572 25.1932 11.0027 22.6514 10.9998 20.0001C10.8448 12.8831 18.7628 7.8001 25.1548 10.9181C23.6583 11.9224 22.4178 13.2631 21.5325 14.8329C20.6472 16.4027 20.1417 18.158 20.0566 19.9582C19.9714 21.7584 20.309 23.5535 21.0421 25.1999C21.7753 26.8462 22.8838 28.2981 24.2788 29.4391C23.226 29.8127 22.1168 30.0024 20.9998 30.0001Z" fill="white"/>
</svg>
