<svg width="40" height="40" viewBox="0 0 40 40" fill="none" xmlns="http://www.w3.org/2000/svg">
<circle cx="20" cy="20" r="20" fill="#4C88F8"/>
<g clip-path="url(#clip0_2877_6052)">
<path d="M31 19H26.92C26.8421 18.449 26.6981 17.9095 26.491 17.393L30.018 15.349C30.1359 15.2856 30.2398 15.1991 30.3237 15.0948C30.4075 14.9904 30.4695 14.8703 30.5061 14.7415C30.5427 14.6127 30.553 14.4779 30.5365 14.3451C30.52 14.2123 30.477 14.0841 30.41 13.9682C30.3431 13.8523 30.2535 13.751 30.1467 13.6703C30.0398 13.5897 29.9179 13.5313 29.7881 13.4986C29.6583 13.466 29.5232 13.4597 29.3909 13.4802C29.2587 13.5007 29.1318 13.5476 29.018 13.618L25.488 15.665C25.1505 15.2387 24.765 14.8528 24.339 14.515L26.385 10.984C26.5082 10.7551 26.5374 10.4871 26.4664 10.237C26.3954 9.9869 26.2298 9.77428 26.0046 9.64422C25.7795 9.51417 25.5126 9.4769 25.2604 9.54033C25.0083 9.60376 24.7908 9.7629 24.654 9.984L22.607 13.509C22.0906 13.3017 21.551 13.1577 21 13.08V9C21 8.73478 20.8946 8.48043 20.7071 8.29289C20.5196 8.10536 20.2652 8 20 8C19.7348 8 19.4804 8.10536 19.2929 8.29289C19.1054 8.48043 19 8.73478 19 9V13.08C18.449 13.1577 17.9094 13.3017 17.393 13.509L15.349 9.982C15.2122 9.7609 14.9947 9.60176 14.7426 9.53833C14.4904 9.4749 14.2235 9.51217 13.9984 9.64222C13.7732 9.77228 13.6076 9.9849 13.5366 10.235C13.4656 10.4851 13.4948 10.7531 13.618 10.982L15.664 14.515C15.238 14.8528 14.8525 15.2387 14.515 15.665L10.985 13.618C10.8712 13.5476 10.7443 13.5007 10.6121 13.4802C10.4798 13.4597 10.3447 13.466 10.2149 13.4986C10.0851 13.5313 9.96316 13.5897 9.85633 13.6703C9.7495 13.751 9.65995 13.8523 9.59299 13.9682C9.52603 14.0841 9.48302 14.2123 9.46651 14.3451C9.45001 14.4779 9.46034 14.6127 9.4969 14.7415C9.53346 14.8703 9.5955 14.9904 9.67934 15.0948C9.76318 15.1991 9.86712 15.2856 9.985 15.349L13.509 17.393C13.3019 17.9095 13.1579 18.449 13.08 19H9C8.73478 19 8.48043 19.1054 8.29289 19.2929C8.10536 19.4804 8 19.7348 8 20C8 20.2652 8.10536 20.5196 8.29289 20.7071C8.48043 20.8946 8.73478 21 9 21H13.08C13.1579 21.551 13.3019 22.0905 13.509 22.607L9.982 24.651C9.86412 24.7144 9.76018 24.8009 9.67634 24.9052C9.5925 25.0096 9.53046 25.1297 9.4939 25.2585C9.45734 25.3873 9.44701 25.5221 9.46351 25.6549C9.48002 25.7877 9.52303 25.9159 9.58999 26.0318C9.65695 26.1477 9.7465 26.249 9.85333 26.3297C9.96016 26.4103 10.0821 26.4687 10.2119 26.5014C10.3417 26.534 10.4768 26.5403 10.6091 26.5198C10.7413 26.4993 10.8682 26.4524 10.982 26.382L14.512 24.335C14.8495 24.7613 15.235 25.1472 15.661 25.485L13.618 29.016C13.4948 29.2449 13.4656 29.5129 13.5366 29.763C13.6076 30.0131 13.7732 30.2257 13.9984 30.3558C14.2235 30.4858 14.4904 30.5231 14.7426 30.4597C14.9947 30.3962 15.2122 30.2371 15.349 30.016L17.393 26.489C17.9095 26.6965 18.449 26.8412 19 26.92V31C19 31.2652 19.1054 31.5196 19.2929 31.7071C19.4804 31.8946 19.7348 32 20 32C20.2652 32 20.5196 31.8946 20.7071 31.7071C20.8946 31.5196 21 31.2652 21 31V26.92C21.5509 26.8419 22.0904 26.6978 22.607 26.491L24.651 30.018C24.7878 30.2391 25.0053 30.3982 25.2574 30.4617C25.5096 30.5251 25.7765 30.4878 26.0016 30.3578C26.2268 30.2277 26.3924 30.0151 26.4634 29.765C26.5344 29.5149 26.5052 29.2469 26.382 29.018L24.336 25.487C24.762 25.1492 25.1475 24.7633 25.485 24.337L29.015 26.384C29.1288 26.4544 29.2557 26.5013 29.3879 26.5218C29.5202 26.5423 29.6553 26.536 29.7851 26.5034C29.9149 26.4707 30.0368 26.4123 30.1437 26.3317C30.2505 26.251 30.34 26.1497 30.407 26.0338C30.474 25.9179 30.517 25.7897 30.5335 25.6569C30.55 25.5241 30.5397 25.3893 30.5031 25.2605C30.4665 25.1317 30.4045 25.0116 30.3207 24.9072C30.2368 24.8029 30.1329 24.7164 30.015 24.653L26.488 22.609C26.6962 22.092 26.8413 21.5518 26.92 21H31C31.2652 21 31.5196 20.8946 31.7071 20.7071C31.8946 20.5196 32 20.2652 32 20C32 19.7348 31.8946 19.4804 31.7071 19.2929C31.5196 19.1054 31.2652 19 31 19ZM20 25C13.392 24.79 13.394 15.209 20 15C26.608 15.21 26.606 24.791 20 25Z" fill="white"/>
</g>
<defs>
<clipPath id="clip0_2877_6052">
<rect width="24" height="24" fill="white" transform="translate(8 8)"/>
</clipPath>
</defs>
</svg>
