<svg width="197" height="39" viewBox="0 0 197 39" fill="none" xmlns="http://www.w3.org/2000/svg">
    <path
        d="M7.4048 17.6897C6.77469 20.1243 6.77469 22.6792 7.4048 25.1138C6.0794 23.4182 4.19211 22.2515 2.08283 21.8239L0 21.4017L2.08282 20.9796C4.1921 20.552 6.0794 19.3853 7.4048 17.6897Z"
        fill="white"/>
    <path
        d="M12.8372 10.4491C11.575 11.1922 10.5228 12.2445 9.77963 13.5067C9.93211 12.2625 9.63532 11.0047 8.94271 9.95991L8.25879 8.92822L9.29047 9.61214C10.3353 10.3048 11.593 10.6015 12.8372 10.4491Z"
        fill="white"/>
    <path
        d="M24.4456 8.07472C22.011 7.44461 19.4561 7.44461 17.0215 8.07472C18.7171 6.74932 19.8838 4.86203 20.3113 2.75275L20.7335 0.669922L21.1557 2.75275C21.5833 4.86203 22.7499 6.74932 24.4456 8.07472Z"
        fill="white"/>
    <path
        d="M28.6289 10.4503L30.1895 11.3692L33.2073 8.92944L32.1757 9.61337C31.1309 10.306 29.8731 10.6028 28.6289 10.4503Z"
        fill="white"/>
    <path
        d="M17.8369 20.9174L31.3653 11.9648C33.0753 10.8332 35.3171 10.9211 36.9333 12.1829L36.6287 12.2165C35.0415 12.3913 33.4999 12.8556 32.0801 13.5864L17.8369 20.9174Z"
        fill="white"/>
    <path
        d="M17.3555 23.3278L38.6389 11.8232C41.7654 10.1332 45.661 11.0351 47.7268 13.9271C45.073 13.1466 42.2334 13.2853 39.6683 14.3207L17.3555 23.3278Z"
        fill="white"/>
    <path
        d="M17.6592 25.727L36.0089 18.7493C44.4224 15.55 53.2394 13.535 62.2074 12.7619L62.3899 12.7461C62.5269 12.7343 62.6343 12.8616 62.5996 12.9946C61.7011 16.4387 59.8486 19.5592 57.2551 21.9971L51.811 27.1145C50.0752 28.7462 48.7376 30.7552 47.9018 32.9861C48.1028 30.6034 48.9038 28.3104 50.2302 26.3208L54.2475 20.2948C54.9631 19.2215 54.1937 17.7838 52.9037 17.7838C48.8274 17.7838 44.7693 18.3277 40.8369 19.401L17.6592 25.727Z"
        fill="white"/>
    <path
        d="M51.1008 22.1226L48.4653 26.1339C47.1505 28.135 46.244 30.376 45.7979 32.7284L40.0448 30.7765C34.903 29.0319 29.5567 27.9613 24.1396 27.5913C28.2779 27.161 32.4536 27.2479 36.5704 27.8498L42.2369 28.6782C43.3449 28.8402 44.4731 28.5748 45.3926 27.9358C46.1111 27.4364 46.7717 26.8585 47.362 26.2127L51.1008 22.1226Z"
        fill="white"/>
    <path
        d="M14.4629 29.354C14.4629 29.354 23.8635 27.6668 29.4456 29.5572C36.5286 31.956 40.2328 34.5549 47.6521 35.4909C51.4859 35.9746 57.543 35.7677 57.543 35.7677C57.543 35.7677 51.1214 36.9788 46.5215 36.5851C39.4912 35.9836 34.9515 32.9695 28.629 30.831C23.3601 29.0488 14.4629 29.354 14.4629 29.354Z"
        fill="white"/>
    <path
        d="M16.3906 31.2824C16.3906 31.2824 22.6577 31.0414 26.9965 32.4876C31.3352 33.9338 33.007 34.6242 36.7944 36.1571C40.2538 37.5572 45.0423 38.1965 45.0423 38.1965C45.0423 38.1965 40.2148 38.4603 37.3313 37.5572C34.2277 36.5853 31.6107 35.5716 27.9778 34.2102C23.3808 32.4876 16.3906 31.2824 16.3906 31.2824Z"
        fill="white"/>
    <path
        d="M70.1211 10.0543C70.1211 9.85913 70.2793 9.70091 70.4745 9.70091H75.3718C78.6917 9.70091 81.1697 10.6999 81.1697 13.7188C81.1697 15.2322 80.347 16.7417 78.9636 17.2398V17.3394C80.71 17.7539 82.0098 19.0003 82.0098 21.1932C82.0098 24.4629 79.3337 25.9755 75.7981 25.9755H70.4745C70.2793 25.9755 70.1211 25.8173 70.1211 25.6221V10.0543ZM75.1392 16.3656C77.2568 16.3656 78.1659 15.5151 78.1659 14.1635C78.1659 12.6767 77.173 12.1092 75.1896 12.1092H73.5435C73.3484 12.1092 73.1901 12.2674 73.1901 12.4626V16.0122C73.1901 16.2074 73.3484 16.3656 73.5435 16.3656H75.1392ZM75.5022 23.5669C77.7648 23.5669 79.006 22.7492 79.006 21.0125C79.006 19.3772 77.7984 18.6753 75.5022 18.6753H73.5435C73.3484 18.6753 73.1901 18.8335 73.1901 19.0286V23.2136C73.1901 23.4087 73.3484 23.5669 73.5435 23.5669H75.5022ZM83.8532 19.8499C83.8532 15.766 86.628 13.4086 89.6669 13.4086C92.7058 13.4086 95.4806 15.766 95.4806 19.8499C95.4806 23.9167 92.7058 26.2744 89.6669 26.2744C86.628 26.2744 83.8532 23.9167 83.8532 19.8499ZM92.3464 19.8499C92.3464 17.4832 91.3676 15.9157 89.6669 15.9157C87.9662 15.9157 86.9874 17.4832 86.9874 19.8499C86.9874 22.2167 87.9662 23.767 89.6669 23.767C91.3676 23.767 92.3464 22.2167 92.3464 19.8499ZM96.9302 26.1352C96.7548 26.0822 96.645 25.9079 96.6787 25.7279L97.1456 23.2388C97.3261 23.2887 97.5067 23.3386 97.7364 23.3386C98.4624 23.3386 98.9727 22.737 99.1539 21.2366C99.4612 18.8391 99.7161 16.4343 99.9905 14.0217C100.011 13.843 100.162 13.7075 100.342 13.7075H108.099C108.295 13.7075 108.453 13.8657 108.453 14.0609V25.6221C108.453 25.8173 108.295 25.9755 108.099 25.9755H105.754C105.559 25.9755 105.401 25.8173 105.401 25.6221V16.5022C105.401 16.307 105.243 16.1488 105.047 16.1488L102.756 16.1488C102.577 16.1488 102.426 16.2815 102.405 16.4595C102.187 18.3183 101.967 20.223 101.717 22.0764C101.34 24.8155 100.095 26.2744 97.9492 26.2744C97.5564 26.2744 97.2375 26.2279 96.9302 26.1352ZM112.3 13.7075H119.668C119.863 13.7075 120.021 13.8657 120.021 14.0609V15.7954C120.021 15.9906 119.863 16.1488 119.668 16.1488H115.352C115.157 16.1488 114.999 16.307 114.999 16.5022V25.6221C114.999 25.8173 114.84 25.9755 114.645 25.9755H112.3C112.104 25.9755 111.946 25.8173 111.946 25.6221V14.0609C111.946 13.8657 112.104 13.7075 112.3 13.7075ZM120.861 22.6499C120.861 20.0954 122.886 18.7225 127.576 18.164C127.772 18.1407 127.915 17.9622 127.891 17.7664C127.759 16.6892 127.194 15.8828 125.792 15.8828C124.747 15.8828 123.743 16.3064 122.749 16.8782C122.576 16.9779 122.355 16.9186 122.259 16.743L121.484 15.3153C121.394 15.1493 121.447 14.9396 121.609 14.843C122.948 14.046 124.569 13.4086 126.362 13.4086C129.417 13.4086 130.972 15.2705 130.972 18.7802V25.6221C130.972 25.8173 130.814 25.9755 130.619 25.9755H128.772C128.6 25.9755 128.453 25.8515 128.424 25.682L128.245 24.6446H128.163C127.093 25.5748 125.874 26.2744 124.459 26.2744C122.309 26.2744 120.861 24.7684 120.861 22.6499ZM127.919 22.4584V20.4297C127.919 20.2148 127.728 20.0474 127.515 20.0794C124.736 20.499 123.8 21.3091 123.8 22.4112C123.8 23.4154 124.479 23.8659 125.453 23.8659C126.351 23.8659 127.026 23.4412 127.805 22.7205C127.877 22.6535 127.919 22.557 127.919 22.4584ZM139.566 25.7284L139.965 23.7715C140.038 23.4159 140.212 23.2871 140.395 23.3215C140.506 23.3422 140.625 23.3546 140.764 23.3546C141.587 23.3546 142.179 22.9215 142.936 19.296C143.574 16.2219 144.089 13.1811 144.661 9.99402C144.691 9.82549 144.835 9.70092 145.006 9.70092C146.339 9.70091 151.824 9.70091 153.271 9.70091C153.466 9.70091 153.622 9.85913 153.622 10.0543V25.6221C153.622 25.8173 153.464 25.9755 153.268 25.9755H150.906C150.711 25.9755 150.553 25.8173 150.553 25.6221V12.6599C150.553 12.4647 150.395 12.3065 150.199 12.3065L147.377 12.3065C147.206 12.3065 147.058 12.4325 147.029 12.6016C146.603 15.039 146.205 17.3095 145.777 19.626C144.776 24.9172 143.547 26.2744 141.204 26.2744C140.629 26.2744 140.212 26.2438 139.822 26.1427C139.64 26.0956 139.528 25.9124 139.566 25.7284ZM157.204 22.6499C157.204 20.0954 159.229 18.7225 163.92 18.164C164.115 18.1407 164.258 17.9622 164.234 17.7664C164.102 16.6892 163.537 15.8828 162.135 15.8828C161.09 15.8828 160.087 16.3064 159.092 16.8782C158.919 16.9779 158.698 16.9186 158.602 16.743L157.827 15.3153C157.737 15.1493 157.79 14.9396 157.953 14.843C159.291 14.046 160.912 13.4086 162.705 13.4086C165.76 13.4086 167.315 15.2705 167.315 18.7802V25.6221C167.315 25.8173 167.157 25.9755 166.962 25.9755H165.115C164.943 25.9755 164.796 25.8515 164.767 25.682L164.588 24.6446H164.506C163.436 25.5748 162.217 26.2744 160.802 26.2744C158.652 26.2744 157.204 24.7684 157.204 22.6499ZM164.263 22.4584V20.4297C164.263 20.2148 164.071 20.0474 163.858 20.0794C161.079 20.499 160.143 21.3091 160.143 22.4112C160.143 23.4154 160.822 23.8659 161.796 23.8659C162.694 23.8659 163.369 23.4412 164.148 22.7205C164.22 22.6535 164.263 22.557 164.263 22.4584ZM171.424 13.7075H173.672C173.867 13.7075 174.026 13.8657 174.026 14.0609V17.7144C174.026 18.9688 173.879 20.6043 173.764 22.1325H173.847C174.257 21.3882 174.928 20.2815 175.324 19.5508C175.327 19.5448 175.328 19.5423 175.332 19.5365C175.447 19.3527 178.313 14.7948 178.894 13.8702C178.959 13.7673 179.07 13.7075 179.192 13.7075H181.434C181.629 13.7075 181.788 13.8657 181.788 14.0609V25.6221C181.788 25.8173 181.629 25.9755 181.434 25.9755H179.187C178.992 25.9755 178.833 25.8173 178.833 25.6221V21.9686C178.833 20.714 178.98 19.095 179.111 17.5503H179.012C178.602 18.2947 177.947 19.4181 177.551 20.1326C177.548 20.1382 177.547 20.1401 177.544 20.1455L174.1 25.5991C173.9 25.9159 173.789 25.9755 173.668 25.9755H171.424C171.229 25.9755 171.071 25.8173 171.071 25.6221V14.0609C171.071 13.8657 171.229 13.7075 171.424 13.7075ZM172.808 7.72974L174.499 7.72974C174.686 7.72974 174.836 7.87618 174.851 8.06272C174.951 9.26704 175.374 10.0276 176.535 10.0276C177.697 10.0276 178.12 9.26704 178.22 8.06272C178.235 7.87618 178.385 7.72974 178.573 7.72974L180.263 7.72974C180.476 7.72974 180.635 7.91534 180.615 8.1267C180.416 10.2077 179.18 11.7112 176.535 11.7112C173.891 11.7112 172.655 10.2077 172.456 8.12671C172.436 7.91535 172.595 7.72974 172.808 7.72974ZM186.07 13.7075H188.415C188.611 13.7075 188.769 13.8657 188.769 14.0609V17.9765C188.769 18.1717 188.927 18.3299 189.122 18.3299H192.994C193.189 18.3299 193.347 18.1717 193.347 17.9765V14.0609C193.347 13.8657 193.505 13.7075 193.701 13.7075H196.046C196.241 13.7075 196.399 13.8657 196.399 14.0609V25.6221C196.399 25.8173 196.241 25.9755 196.046 25.9755H193.701C193.505 25.9755 193.347 25.8173 193.347 25.6221V21.388C193.347 21.1928 193.189 21.0346 192.994 21.0346H189.122C188.927 21.0346 188.769 21.1928 188.769 21.388V25.6221C188.769 25.8173 188.611 25.9755 188.415 25.9755H186.07C185.874 25.9755 185.716 25.8173 185.716 25.6221V14.0609C185.716 13.8657 185.874 13.7075 186.07 13.7075Z"
        fill="white"/>
    <path
        d="M70.5254 28.4575V31.6363L73.7145 28.4575H74.3016L71.0315 31.6871L74.4939 35.21H73.8866L70.7076 31.9908L70.5254 32.1626V35.21H70.0801V28.4575H70.5254ZM78.1486 34.4709V37.5385H77.7438V31.0793H78.1486V31.7982C78.5467 31.2582 79.0867 30.9885 79.7684 30.9885C80.3759 30.9885 80.8618 31.1895 81.2261 31.5906C81.5908 31.9922 81.773 32.5002 81.773 33.1145C81.773 33.7421 81.5889 34.267 81.2212 34.6888C80.8533 35.1107 80.3623 35.3216 79.7481 35.3216C79.4376 35.3216 79.1575 35.259 78.9078 35.1342C78.658 35.0094 78.4859 34.8946 78.3916 34.79C78.2969 34.6851 78.216 34.5791 78.1486 34.4709ZM78.5535 34.4153C78.8369 34.7627 79.2319 34.9365 79.738 34.9365C80.2443 34.9365 80.6391 34.7646 80.9225 34.4205C81.2059 34.0763 81.3476 33.6409 81.3476 33.1145C81.3476 32.5675 81.1925 32.1409 80.882 31.8335C80.5715 31.5266 80.1937 31.3731 79.7481 31.3731C79.3093 31.3731 78.9297 31.5252 78.6093 31.8288C78.2887 32.1325 78.1284 32.5543 78.1284 33.0943C78.1284 33.6272 78.2701 34.0679 78.5535 34.4153ZM86.0147 37.5385L86.9869 35.2811L85.0228 31.0793H85.4884L87.2195 34.7543L88.7279 31.0793H89.194L86.4808 37.5385H86.0147ZM92.8077 31.0793H93.2126V34.3899L96.1489 30.8468V35.21H95.7435V31.9197L92.8077 35.4633V31.0793ZM100.745 31.9503L100.41 31.7172C100.694 31.2314 101.129 30.9885 101.716 30.9885C102.115 30.9885 102.418 31.0864 102.628 31.2818C102.85 31.4776 102.962 31.7445 102.962 32.0816C102.962 32.4865 102.803 32.7737 102.486 32.9422C102.668 32.9827 102.83 33.074 102.972 33.2157C103.167 33.4116 103.265 33.6748 103.265 34.0053C103.265 34.4304 103.103 34.7679 102.779 35.0174C102.51 35.2203 102.158 35.3216 101.727 35.3216C101.281 35.3216 100.92 35.2166 100.643 35.0076C100.421 34.8254 100.255 34.6262 100.147 34.4101L100.512 34.1776C100.613 34.4002 100.758 34.5758 100.947 34.7039C101.156 34.8593 101.416 34.9365 101.727 34.9365C102.071 34.9365 102.334 34.8593 102.516 34.7039C102.732 34.5283 102.84 34.2924 102.84 33.9954C102.84 33.7317 102.745 33.5293 102.557 33.3876C102.395 33.2661 102.141 33.2054 101.797 33.2054H101.372V32.8208H101.686C101.949 32.8208 102.155 32.7633 102.304 32.6484C102.472 32.5138 102.557 32.3382 102.557 32.1221C102.557 31.9065 102.486 31.7276 102.344 31.5859C102.189 31.4442 101.976 31.3731 101.706 31.3731C101.274 31.3731 100.954 31.5656 100.745 31.9503ZM107.264 35.21V31.0793H107.669V32.9017H109.997V31.0793H110.403V35.21H109.997V33.2864H107.669V35.21H107.264ZM118.026 31.7982V31.0793H118.431V35.21H118.026V34.4709C117.655 35.0377 117.118 35.3216 116.416 35.3216C115.856 35.3216 115.38 35.1224 114.989 34.7241C114.598 34.3259 114.402 33.7995 114.402 33.1447C114.402 32.5034 114.587 31.9842 114.959 31.5859C115.33 31.1876 115.815 30.9885 116.416 30.9885C117.105 30.9885 117.641 31.2582 118.026 31.7982ZM116.436 31.3731C115.998 31.3731 115.62 31.5299 115.303 31.8439C114.985 32.1579 114.827 32.5811 114.827 33.1145C114.827 33.607 114.972 34.034 115.262 34.3951C115.552 34.7562 115.947 34.9365 116.447 34.9365C116.939 34.9365 117.329 34.7594 117.616 34.4049C117.903 34.0509 118.046 33.6206 118.046 33.1145C118.046 32.5543 117.881 32.124 117.55 31.8236C117.219 31.5233 116.848 31.3731 116.436 31.3731ZM122.247 35.21L123.564 33.4078C123.246 33.3946 122.976 33.2934 122.753 33.1042C122.524 32.9017 122.409 32.6282 122.409 32.2841C122.409 31.8862 122.534 31.5826 122.784 31.3731C123.007 31.1772 123.334 31.0793 123.766 31.0793H125.143V35.21H124.738V33.4281H124.029L122.733 35.21H122.247ZM124.738 33.0434V31.4644H123.766C123.483 31.4644 123.263 31.5252 123.108 31.6466C122.926 31.802 122.834 32.011 122.834 32.2742C122.834 32.5308 122.922 32.7261 123.098 32.8612C123.26 32.9827 123.483 33.0434 123.766 33.0434H124.738ZM140.359 28.4575V31.6363L143.547 28.4575H144.135L140.865 31.6871L144.327 35.21H143.72L140.541 31.9908L140.359 32.1626V35.21H139.913V28.4575H140.359ZM147.936 31.6108C148.351 31.1961 148.865 30.9885 149.48 30.9885C150.094 30.9885 150.609 31.1961 151.024 31.6108C151.439 32.0261 151.646 32.5406 151.646 33.155C151.646 33.7689 151.439 34.2835 151.024 34.6987C150.609 35.1139 150.094 35.3216 149.48 35.3216C148.865 35.3216 148.351 35.1139 147.936 34.6987C147.521 34.2835 147.313 33.7689 147.313 33.155C147.313 32.5406 147.521 32.0261 147.936 31.6108ZM148.24 34.4205C148.574 34.7646 148.987 34.9365 149.48 34.9365C149.972 34.9365 150.386 34.7646 150.72 34.4205C151.054 34.0763 151.221 33.6545 151.221 33.155C151.221 32.6555 151.054 32.2337 150.72 31.8895C150.386 31.5454 149.972 31.3731 149.48 31.3731C148.987 31.3731 148.574 31.5454 148.24 31.8895C147.906 32.2337 147.738 32.6555 147.738 33.155C147.738 33.6545 147.906 34.0763 148.24 34.4205ZM155.159 35.21L156.131 30.8265L157.782 34.5518L159.432 30.8265L160.403 35.21H159.978L159.31 31.9804L157.782 35.4633L156.253 31.9804L155.585 35.21H155.159ZM164.179 35.21V31.0793H167.257V35.21H166.852V31.4644H164.584V35.21H164.179ZM174.881 31.7982V31.0793H175.285V35.21H174.881V34.4709C174.509 35.0377 173.972 35.3216 173.271 35.3216C172.71 35.3216 172.235 35.1224 171.843 34.7241C171.452 34.3259 171.256 33.7995 171.256 33.1447C171.256 32.5034 171.442 31.9842 171.813 31.5859C172.184 31.1876 172.67 30.9885 173.271 30.9885C173.959 30.9885 174.495 31.2582 174.881 31.7982ZM173.291 31.3731C172.852 31.3731 172.474 31.5299 172.157 31.8439C171.84 32.1579 171.681 32.5811 171.681 33.1145C171.681 33.607 171.826 34.034 172.117 34.3951C172.407 34.7562 172.802 34.9365 173.301 34.9365C173.794 34.9365 174.183 34.7594 174.471 34.4049C174.757 34.0509 174.901 33.6206 174.901 33.1145C174.901 32.5543 174.735 32.124 174.405 31.8236C174.074 31.5233 173.703 31.3731 173.291 31.3731ZM179.547 35.21V31.0793H179.952V32.9017H182.28V31.0793H182.686V35.21H182.28V33.2864H179.952V35.21H179.547ZM186.948 31.0793H187.353V34.3899L190.289 30.8468V35.21H189.884V31.9197L186.948 35.4633V31.0793ZM194.105 35.21L195.421 33.4078C195.104 33.3946 194.834 33.2934 194.611 33.1042C194.382 32.9017 194.267 32.6282 194.267 32.2841C194.267 31.8862 194.392 31.5826 194.642 31.3731C194.864 31.1772 195.192 31.0793 195.624 31.0793H197V35.21H196.596V33.4281H195.887L194.591 35.21H194.105ZM196.596 33.0434V31.4644H195.624C195.34 31.4644 195.121 31.5252 194.966 31.6466C194.784 31.802 194.692 32.011 194.692 32.2742C194.692 32.5308 194.78 32.7261 194.955 32.8612C195.118 32.9827 195.34 33.0434 195.624 33.0434H196.596Z"
        fill="white"/>
    <path d="M36.5455 16.4629V17.7163L34.2363 18.5551V17.4704L36.5455 16.4629Z" fill="white"/>
    <path d="M32.3467 18.2952V19.24L31.2861 19.6257V18.7579L32.3467 18.2952Z" fill="white"/>
    <path d="M29.9071 19.3601V20.1266L29.0635 20.4303V19.7265L29.9071 19.3601Z" fill="white"/>
    <path
        d="M27.1774 12.8579C25.1211 11.3202 22.5672 10.6005 20.0105 10.8382C17.4538 11.076 15.0764 12.2543 13.3389 14.1448C11.6014 16.0354 10.6275 18.5035 10.6058 21.0712C10.5842 23.6388 11.5164 26.123 13.2218 28.0426"
        stroke="white" stroke-width="3.26629"/>
</svg>
