<svg width="90" height="90" viewBox="0 0 90 90" fill="none" xmlns="http://www.w3.org/2000/svg">
    <path
        fill-rule="evenodd" clip-rule="evenodd"
        d="M52.3809 5.04907L52.8985 6.98092L59.1259 30.2217L81.853 35.9576L83.8207 36.4542L83.2954 38.4144L74.5603 71.0144L71.6486 81.8811L71.1309 83.8129L69.1991 83.2953L25.7324 71.6484L23.8059 71.1322L24.3168 69.2043L26.0016 62.8459L19.6645 64.5439L17.7327 65.0616L17.215 63.1297L14.3033 52.2631L5.56818 19.6631L5.05054 17.7312L6.98239 17.2136L50.4491 5.56671L52.3809 5.04907ZM30.4559 61.6524L28.6942 68.3009L68.3025 78.9139L70.1798 71.9077L31.3133 61.4227L30.4559 61.6524ZM39.018 59.3582L71.2151 68.044L78.9065 39.3394L60.3115 34.6463L61.6337 39.5809L64.5454 50.4476L65.063 52.3794L63.1312 52.8971L39.018 59.3582ZM9.94952 20.5596L17.6494 49.2959L57.2523 38.6843L55.5661 32.3912L49.5525 9.94805L9.94952 20.5596ZM58.2876 42.548L18.6847 53.1596L20.5611 60.1626L28.3017 58.0885L30.7974 57.4198L60.1641 49.551L58.2876 42.548ZM27.5342 21.8406L29.7577 23.586L35.3183 27.9507L36.8169 25.355L37.9699 23.358L39.7839 24.7818L47.1583 30.5704L50.3048 33.0402L46.4411 34.0755L24.7078 39.8989L21.0981 40.8661L22.2956 37.3261L26.6283 24.5183L27.5342 21.8406ZM29.5115 28.4779L27.2822 35.068L35.2032 32.9455L34.6624 32.521L29.5115 28.4779ZM37.3919 32.3591L41.5421 31.247L39.128 29.3521L37.6294 31.9478L37.3919 32.3591Z"
        fill="#0B3E83"
    />
</svg>
