<svg width="90" height="90" viewBox="0 0 90 90" fill="none" xmlns="http://www.w3.org/2000/svg">
    <path
        fill-rule="evenodd" clip-rule="evenodd"
          d="M62.1499 8.8C63.7079 6.7226 66.1531 5.5 68.7499 5.5C73.3062 5.5 76.9999 9.19365 76.9999 13.75V15C76.9999 20.2467 72.7466 24.5 67.4999 24.5H63.7499C62.6453 24.5 61.7499 23.6046 61.7499 22.5C61.7499 21.3954 62.6453 20.5 63.7499 20.5H67.4999C70.5374 20.5 72.9999 18.0376 72.9999 15V13.75C72.9999 11.4028 71.0971 9.5 68.7499 9.5C67.4122 9.5 66.1525 10.1298 65.3499 11.2L64.3403 12.5462C62.2374 15.3499 58.9373 17 55.4326 17H52.4999C51.3953 17 50.4999 16.1046 50.4999 15C50.4999 13.8954 51.3953 13 52.4999 13H55.4326C57.6782 13 59.7929 11.9427 61.1403 10.1462L62.1499 8.8ZM39.3525 21.8675C39.6247 21.0509 40.389 20.5 41.2499 20.5H48.7499C49.6107 20.5 50.375 21.0509 50.6472 21.8675L54.081 32.1689L64.0744 35.5H74.9999C76.1045 35.5 76.9999 36.3954 76.9999 37.5C76.9999 38.6046 76.1045 39.5 74.9999 39.5H66.3114L69.0614 50.5H72.4269C73.6848 50.5 74.8091 51.2848 75.2429 52.4655L78.597 61.596C80.1002 65.6882 78.0502 70.2305 73.9872 71.8106L55.5023 78.9992C56.811 79.3805 58.2401 79.2688 59.5014 78.6382C62.1759 77.3009 65.3239 77.3009 67.9984 78.6382C69.8617 79.5699 72.0915 79.3688 73.7581 78.1189L73.7999 78.0875C74.6835 77.4248 75.9371 77.6039 76.5999 78.4875C77.2626 79.3712 77.0835 80.6248 76.1999 81.2875L76.1581 81.3189C73.2794 83.4779 69.428 83.8251 66.2096 82.2159C64.6612 81.4417 62.8386 81.4417 61.2902 82.2159C58.0718 83.8251 54.2203 83.4779 51.3417 81.3189L51.3416 81.3188L51.2998 81.2875C51.0947 81.1336 50.9275 80.9479 50.8 80.7423C50.7419 80.7474 50.6834 80.75 50.6249 80.75H39.3749C39.3163 80.75 39.2579 80.7474 39.1997 80.7423C39.0723 80.9479 38.9051 81.1336 38.6999 81.2875L38.6582 81.3188L38.6581 81.3189C35.7794 83.4779 31.928 83.8251 28.7096 82.2159C27.1612 81.4417 25.3386 81.4417 23.7902 82.2159C20.5718 83.8251 16.7203 83.4779 13.8417 81.3189L13.8416 81.3188L13.7998 81.2874C12.9162 80.6247 12.7372 79.371 13.3999 78.4874C14.0627 77.6038 15.3163 77.4248 16.2 78.0876L16.2417 78.1189C17.9083 79.3688 20.138 79.5699 22.0014 78.6382C24.6759 77.3009 27.8239 77.3009 30.4984 78.6382C31.7596 79.2688 33.1888 79.3805 34.4975 78.9992L16.0126 71.8106C11.9495 70.2305 9.89958 65.6882 11.4028 61.596L14.7569 52.4655C15.1906 51.2848 16.315 50.5 17.5729 50.5H20.9383L23.6883 39.5H14.9999C13.8953 39.5 12.9999 38.6046 12.9999 37.5C12.9999 36.3954 13.8953 35.5 14.9999 35.5H25.9253L35.9187 32.1689L39.3525 21.8675ZM37.8244 35.75L27.9239 39.0502L25.0614 50.5H29.7537L44.5148 46.8097C44.8333 46.7301 45.1665 46.7301 45.485 46.8097L60.2461 50.5H64.9383L62.0759 39.0502L52.1753 35.75H37.8244ZM49.725 31.75L47.3084 24.5H42.6914L40.2747 31.75H49.725ZM57.9999 54.0616L44.9999 50.8116L31.9999 54.0616V60C31.9999 61.1046 31.1045 62 29.9999 62C28.8953 62 27.9999 61.1046 27.9999 60V54.5H22.4999H18.2709L15.1575 62.9753C14.4059 65.0214 15.4308 67.2925 17.4624 68.0826L39.7501 76.75H50.2497L72.5374 68.0826C74.5689 67.2925 75.5939 65.0214 74.8423 62.9753L71.7289 54.5H67.4999H61.9999V60C61.9999 61.1046 61.1045 62 59.9999 62C58.8953 62 57.9999 61.1046 57.9999 60V54.0616Z"
          fill="#0B3E83"
    />
</svg>
