<svg width="24" height="24" viewBox="0 0 24 24" fill="none" xmlns="http://www.w3.org/2000/svg">
    <path fill-rule="evenodd" clip-rule="evenodd"
          d="M7 2V4H9V2H11V4H13V2H15V4H17V2H19V4H21H22V5V21V22H21H3H2V21V5V4H3H5V2H7ZM17 6V7H19V6H20V20H4V6H5V7H7V6H9V7H11V6H13V7H15V6H17ZM5 11H8V9H5V11ZM9 11H12V9H9V11ZM13 11H16V9H13V11ZM5 15H7V13H5V15ZM9 15H11V13H9V15ZM13 15H15V13H13V15ZM17 15H19V13H17V15ZM5 19H7V17H5V19ZM9 19H11V17H9V19ZM13 19H15V17H13V19ZM17 19H19V17H17V19Z"
          fill="#EAEEF4"/>
</svg>
