<svg width="16" height="17" viewBox="0 0 16 17" fill="none" xmlns="http://www.w3.org/2000/svg">
<mask id="path-1-inside-1" fill="white">
<path fill-rule="evenodd" clip-rule="evenodd" d="M14.5607 3.93985C15.1465 4.52565 15.1464 5.4754 14.5606 6.06117L7.56064 13.0609C6.97486 13.6466 6.02517 13.6466 5.43939 13.0609L1.93939 9.5612C1.35357 8.97544 1.35353 8.02569 1.93929 7.43988C2.52505 6.85406 3.4748 6.85402 4.06061 7.43978L6.49998 9.87893L12.4394 3.9398C13.0252 3.35403 13.9749 3.35405 14.5607 3.93985Z"/>
</mask>
<path fill-rule="evenodd" clip-rule="evenodd" d="M14.5607 3.93985C15.1465 4.52565 15.1464 5.4754 14.5606 6.06117L7.56064 13.0609C6.97486 13.6466 6.02517 13.6466 5.43939 13.0609L1.93939 9.5612C1.35357 8.97544 1.35353 8.02569 1.93929 7.43988C2.52505 6.85406 3.4748 6.85402 4.06061 7.43978L6.49998 9.87893L12.4394 3.9398C13.0252 3.35403 13.9749 3.35405 14.5607 3.93985Z" fill="#0C73FE"/>
<path d="M14.5606 6.06117L15.9748 7.47542L15.9748 7.47542L14.5606 6.06117ZM14.5607 3.93985L15.9749 2.52567V2.52567L14.5607 3.93985ZM7.56064 13.0609L8.97482 14.4751L8.97482 14.4751L7.56064 13.0609ZM5.43939 13.0609L4.02524 14.4752L5.43939 13.0609ZM1.93939 9.5612L0.525237 10.9755H0.525237L1.93939 9.5612ZM1.93929 7.43988L3.35357 8.85403L3.35357 8.85403L1.93929 7.43988ZM4.06061 7.43978L5.47476 6.0255H5.47476L4.06061 7.43978ZM6.49998 9.87893L5.08583 11.2932L6.50001 12.7073L7.91416 11.2932L6.49998 9.87893ZM12.4394 3.9398L13.8535 5.35405L13.8535 5.35405L12.4394 3.9398ZM15.9748 7.47542C17.3417 6.10861 17.3417 3.89254 15.9749 2.52567L13.1464 5.35403C12.9512 5.15877 12.9512 4.84218 13.1465 4.64693L15.9748 7.47542ZM8.97482 14.4751L15.9748 7.47542L13.1465 4.64693L6.14645 11.6466L8.97482 14.4751ZM4.02524 14.4752C5.39207 15.8419 7.60802 15.8418 8.97482 14.4751L6.14646 11.6466C6.34171 11.4514 6.65827 11.4514 6.85354 11.6466L4.02524 14.4752ZM0.525237 10.9755L4.02524 14.4752L6.85354 11.6466L3.35354 8.14692L0.525237 10.9755ZM0.525016 6.02573C-0.841758 7.39262 -0.841659 9.6087 0.525237 10.9755L3.35354 8.14692C3.54881 8.34217 3.54882 8.65876 3.35357 8.85403L0.525016 6.02573ZM5.47476 6.0255C4.10787 4.65873 1.89179 4.65883 0.525016 6.02573L3.35357 8.85403C3.15832 9.0493 2.84173 9.04931 2.64646 8.85406L5.47476 6.0255ZM7.91413 8.46465L5.47476 6.0255L2.64646 8.85406L5.08583 11.2932L7.91413 8.46465ZM11.0252 2.52556L5.08579 8.46468L7.91416 11.2932L13.8535 5.35405L11.0252 2.52556ZM15.9749 2.52567C14.6081 1.1588 12.392 1.15875 11.0252 2.52556L13.8535 5.35405C13.6583 5.54931 13.3417 5.5493 13.1464 5.35403L15.9749 2.52567Z" fill="#0C73FE" mask="url(#path-1-inside-1)"/>
</svg>
