<svg width="22" height="22" viewBox="0 0 22 22" fill="none" xmlns="http://www.w3.org/2000/svg">
<path fill-rule="evenodd" clip-rule="evenodd" d="M6.5 1.8335V3.5835H8.16666V1.8335H10.1667V3.5835H11.8333V1.8335H13.8333V3.5835H15.5V1.8335H17.5V3.5835H19.25H20.25V4.5835V19.2502V20.2502H19.25H2.75H1.75V19.2502V4.5835V3.5835H2.75H4.5V1.8335H6.5ZM15.5 5.5835V6.41683H17.5V5.5835H18.25V18.2502H3.75V5.5835H4.5V6.41683H6.5V5.5835H8.16666V6.41683H10.1667V5.5835H11.8333V6.41683H13.8333V5.5835H15.5ZM4.58334 10.1668H7.33334V8.16681H4.58334V10.1668ZM8.25001 10.1668H11V8.16681H8.25001V10.1668ZM11.9167 10.1668H14.6667V8.16681H11.9167V10.1668ZM4.58334 13.8335H6.41667V11.8335H4.58334V13.8335ZM8.25001 13.8335H10.0833V11.8335H8.25001V13.8335ZM11.9167 13.8335H13.75V11.8335H11.9167V13.8335ZM15.5833 13.8335H17.4167V11.8335H15.5833V13.8335ZM4.58334 17.5001H6.41667V15.5001H4.58334V17.5001ZM8.25001 17.5001H10.0833V15.5001H8.25001V17.5001ZM11.9167 17.5001H13.75V15.5001H11.9167V17.5001ZM15.5833 17.5001H17.4167V15.5001H15.5833V17.5001Z" fill="#828282"/>
</svg>
