<svg width="24" height="24" viewBox="0 0 24 24" fill="none" xmlns="http://www.w3.org/2000/svg">
<path fill-rule="evenodd" clip-rule="evenodd" d="M4 0H3L3 1L3 23V24H4H7.55059H8.06474L8.36389 23.5818C9.24078 22.3561 10.7752 21.5 12.5 21.5C14.2338 21.5 15.8151 22.3634 16.6867 23.5818L16.9858 24H17.5H21H22V23V1V0H21H17.5H16.9859L16.6867 0.418163C15.8151 1.63655 14.2338 2.5 12.5 2.5C10.7662 2.5 9.18494 1.63655 8.31331 0.418164L8.01415 0H7.5H4ZM5 15L5 2H7.01295C8.29895 3.51558 10.3236 4.5 12.5 4.5C14.6764 4.5 16.701 3.51558 17.9871 2H20L20 15H19.0625V17H20L20 22H17.987C16.701 20.4844 14.6764 19.5 12.5 19.5C10.316 19.5 8.33713 20.4899 7.0626 22H5L5 17H5.9375V15H5ZM15.3125 17H17.1875V15H15.3125V17ZM11.5625 17H13.4375V15H11.5625V17ZM7.8125 17L9.6875 17V15H7.8125V17ZM16 9H9V7H16V9ZM10 13H15V11H10V13Z" fill="#1D1F20"/>
</svg>
