<svg width="18" height="24" viewBox="0 0 18 24" fill="none" xmlns="http://www.w3.org/2000/svg">
    <path
        d="M4.58709 23.9564C4.83399 24.1079 5.12295 23.8357 4.97984 23.5833C4.60395 22.9156 4.39071 22.1469 4.39071 21.3249C4.39071 19.5856 5.35299 18.1941 6.76972 17.2683C8.02371 16.4491 7.68148 15.3915 7.88905 14.1319C8.01249 13.3856 8.47818 12.7067 8.86814 12.255C9.02524 12.0727 9.31981 12.1597 9.35908 12.3953C9.58912 13.8092 11.4239 16.2163 12.4815 17.7873C13.699 19.5996 13.6205 21.1959 13.6121 21.3165C13.6121 21.3221 13.6121 21.3277 13.6121 21.3334C13.6093 22.1497 13.3961 22.9156 13.0229 23.5777C12.8799 23.8302 13.1688 24.1051 13.4157 23.9508C15.3626 22.7473 16.7653 20.7611 17.2339 18.5195C17.607 16.7353 17.3966 14.8921 16.7934 13.1864C16.4371 12.1793 15.9462 11.2227 15.3486 10.3361C13.4157 7.46061 10.052 3.05329 9.64807 0.475154C9.57232 0.00104085 8.97196 -0.167283 8.66056 0.197419C8.65495 0.20303 8.08265 0.834246 7.72359 1.53279C7.4178 2.13034 7.16809 2.75595 7.02504 3.40961C6.75572 4.64118 6.80341 5.95972 7.11201 7.18007C7.21303 7.57843 7.34205 7.96839 7.49918 8.34711C7.65065 8.71182 7.81336 9.07933 7.84141 9.47769C7.88633 10.2211 7.21303 10.8636 6.48363 10.8636C5.82997 10.8636 5.28849 10.4708 5.14822 9.73018C5.11175 9.53941 4.89857 9.43845 4.73025 9.53663C2.24746 10.9982 0.581055 13.6998 0.581055 16.7886C0.586581 19.8184 2.18566 22.4751 4.58709 23.9564Z"
        fill="white"/>
</svg>
