<svg width="60" height="60" viewBox="0 0 60 60" fill="none" xmlns="http://www.w3.org/2000/svg">
    <path
        fill-rule="evenodd" clip-rule="evenodd"
        d="M51.7675 21.5337H49.4907C49.5543 20.8932 49.5873 20.2441 49.5873 19.5873C49.5873 8.78684 40.8005 0 30 0C19.1995 0 10.4127 8.78684 10.4127 19.5873C10.4127 20.2441 10.4457 20.8932 10.5093 21.5337H8.23254C3.69316 21.5337 0 25.2268 0 29.7662V51.7673C0 56.3068 3.69316 60 8.23254 60H51.7675C56.3068 60 60 56.3068 60 51.7675V29.7662C60 25.2268 56.3068 21.5337 51.7675 21.5337ZM30 35.659C26.2009 35.659 22.7062 34.3331 19.9523 32.121L25.8623 26.211C26.5853 26.6643 27.3871 27.0016 28.2423 27.1991V31.3878H31.7579V27.1991C32.6132 27.0016 33.415 26.6641 34.1379 26.211L37.1014 29.1745L39.5873 26.6886L36.6238 23.7251C37.077 23.0021 37.4145 22.2004 37.6119 21.3451H41.8007V17.8295H37.6119C37.4145 16.9743 37.077 16.1725 36.6237 15.4495L42.5337 9.53953C44.7458 12.2934 46.0717 15.7882 46.0717 19.5873C46.0717 28.4493 38.862 35.659 30 35.659ZM25.7019 19.5873C25.7019 17.2173 27.63 15.2892 30 15.2892C30.5387 15.2892 31.0542 15.3898 31.5298 15.5715L25.9843 21.117C25.8025 20.6415 25.7019 20.126 25.7019 19.5873ZM34.2981 19.5873C34.2981 21.9572 32.37 23.8853 30 23.8853C29.4613 23.8853 28.9458 23.7847 28.4702 23.603L34.0157 18.0575C34.1975 18.5331 34.2981 19.0486 34.2981 19.5873ZM30 3.51562C33.7991 3.51562 37.2937 4.84148 40.0477 7.05363L34.1377 12.9636C33.4147 12.5104 32.6129 12.173 31.7577 11.9755V7.78676H28.2421V11.9755C27.3868 12.173 26.585 12.5105 25.8621 12.9636L22.8986 10.0001L20.4127 12.486L23.3762 15.4495C22.9229 16.1725 22.5854 16.9743 22.388 17.8295H18.1992V21.3451H22.388C22.5854 22.2004 22.9229 23.0021 23.3761 23.7251L17.4661 29.6351C15.2539 26.8812 13.9281 23.3864 13.9281 19.5874C13.9283 10.7254 21.138 3.51562 30 3.51562ZM56.4844 51.7675C56.4844 54.3683 54.3683 56.4844 51.7675 56.4844H8.23254C5.63168 56.4844 3.51562 54.3683 3.51562 51.7675V29.7662C3.51562 27.1652 5.63168 25.0493 8.23254 25.0493H11.1886C11.5905 26.4315 12.1407 27.7511 12.8214 28.9895H12.0757C9.46535 28.9895 7.34168 31.1132 7.34168 33.7235V37.4167H10.8573V33.7235C10.8573 33.0517 11.4039 32.5051 12.0757 32.5051H15.2895C18.8818 36.5911 24.1446 39.1746 30 39.1746C35.8554 39.1746 41.1182 36.5912 44.7105 32.5051H47.9243C48.5961 32.5051 49.1427 33.0517 49.1427 33.7235V37.4167H52.6583V33.7235C52.6583 31.1132 50.5346 28.9895 47.9243 28.9895H47.1786C47.8591 27.7511 48.4095 26.4315 48.8114 25.0493H51.7675C54.3683 25.0493 56.4844 27.1654 56.4844 29.7662V51.7675ZM10.8569 47.8092V44.116H7.34125V47.8092C7.34125 50.4195 9.46492 52.5432 12.0753 52.5432H15.7685V49.0275H12.0753C11.4035 49.0277 10.8569 48.4811 10.8569 47.8092ZM47.9249 49.0275C48.5968 49.0275 49.1433 48.481 49.1433 47.8092V44.116H52.6589V47.8092C52.6589 50.4195 50.5353 52.5432 47.9249 52.5432H44.2316V49.0275H47.9249Z"
        fill="#0B3E83"
    />
</svg>
