<svg width="77" height="76" viewBox="0 0 77 76" fill="none" xmlns="http://www.w3.org/2000/svg">
    <path
        fill-rule="evenodd" clip-rule="evenodd"
        d="M34.0938 5.24854C18.4399 5.24854 5.75 17.9385 5.75 33.5923C5.75 49.2461 18.4399 61.936 34.0938 61.936C41.8983 61.936 48.9662 58.7816 54.0919 53.6782C54.1056 53.6638 54.1194 53.6497 54.1335 53.6356C54.1476 53.6214 54.1619 53.6075 54.1763 53.5937C59.2817 48.4678 62.4375 41.3986 62.4375 33.5923C62.4375 17.9385 49.7476 5.24854 34.0938 5.24854ZM59.3715 55.3381C64.3985 49.4999 67.4375 41.901 67.4375 33.5923C67.4375 15.177 52.509 0.248535 34.0938 0.248535C15.6785 0.248535 0.75 15.177 0.75 33.5923C0.75 52.0075 15.6785 66.936 34.0938 66.936C42.4006 66.936 49.998 63.8984 55.8357 58.8733L71.979 75.0167C72.9553 75.993 74.5382 75.993 75.5145 75.0167C76.4909 74.0404 76.4909 72.4574 75.5145 71.4811L59.3715 55.3381ZM36.5938 21.8437C36.5938 20.463 35.4745 19.3437 34.0938 19.3437C32.713 19.3437 31.5938 20.463 31.5938 21.8437V31.0937H22.3438C20.963 31.0937 19.8438 32.213 19.8438 33.5937C19.8438 34.9744 20.963 36.0937 22.3438 36.0937H31.5938V45.3437C31.5938 46.7244 32.713 47.8437 34.0938 47.8437C35.4745 47.8437 36.5938 46.7244 36.5938 45.3437V36.0937H45.8438C47.2245 36.0937 48.3438 34.9744 48.3438 33.5937C48.3438 32.213 47.2245 31.0937 45.8438 31.0937H36.5938V21.8437Z"
        fill="white"
    />
</svg>
