<svg width="24" height="25" viewBox="0 0 24 25" fill="none" xmlns="http://www.w3.org/2000/svg">
    <path
        d="M12 13.4199C13.6569 13.4199 15 12.0768 15 10.4199C15 8.76307 13.6569 7.41992 12 7.41992C10.3431 7.41992 9 8.76307 9 10.4199C9 12.0768 10.3431 13.4199 12 13.4199Z"
        stroke="#DA3E34" stroke-width="2" stroke-linecap="round" stroke-linejoin="round"/>
    <path
        d="M19.5 10.4199C19.5 17.1699 12 22.4199 12 22.4199C12 22.4199 4.5 17.1699 4.5 10.4199C4.5 8.4308 5.29018 6.52314 6.6967 5.11662C8.10322 3.7101 10.0109 2.91992 12 2.91992C13.9891 2.91992 15.8968 3.7101 17.3033 5.11662C18.7098 6.52314 19.5 8.4308 19.5 10.4199V10.4199Z"
        stroke="#DA3E34" stroke-width="2" stroke-linecap="round" stroke-linejoin="round"/>
</svg>
