<svg width="61" height="60" viewBox="0 0 61 60" fill="none" xmlns="http://www.w3.org/2000/svg">
    <path
        fill-rule="evenodd" clip-rule="evenodd"
        d="M50.2366 50.8601H58.9086C59.8795 50.8601 60.6664 51.6471 60.6666 52.6179V58.2427C60.5746 60.5732 57.244 60.575 57.1511 58.2427V54.3756H50.2368C44.0983 54.3756 39.1043 49.3816 39.1043 43.2431V40.7822H35.5116C34.9392 40.7822 34.4029 40.5036 34.0736 40.0355C33.7444 39.5673 33.6638 38.9683 33.8574 38.4297L37.8152 27.4205V22.8529C37.8152 18.9294 38.8106 15.1132 40.706 11.7217C37.876 9.29058 36.5264 6.4424 36.5264 4.02839C36.5264 3.24794 37.0409 2.561 37.7899 2.34151C43.9967 0.522917 51.5186 -0.274527 58.9694 0.0953086C61.2955 0.306007 61.1266 3.6268 58.795 3.60652C52.3157 3.28473 45.8023 3.88706 40.264 5.30746C42.4236 10.7081 49.699 13.6571 58.9086 13.7046C59.8794 13.7046 60.6664 14.4916 60.6664 15.4624C60.6664 16.4331 59.8794 17.2201 58.9086 17.2201C52.2856 17.2201 47.2274 15.7999 43.6086 13.7461C42.1156 16.5361 41.3306 19.6513 41.3306 22.8528V27.7268C41.3306 27.9296 41.2956 28.1308 41.2269 28.3215L38.0111 37.2666H40.8619C41.8326 37.2666 42.6196 38.0536 42.6196 39.0244V43.2431C42.6196 47.4431 46.0365 50.8601 50.2366 50.8601ZM32.1899 15.3761C32.7207 15.3761 33.2229 15.616 33.5567 16.0286C33.8903 16.4413 34.0198 16.9827 33.9087 17.5016L31.0707 30.7686C30.8973 31.5793 30.1809 32.1586 29.3518 32.1586H20.4789C19.2768 32.1586 18.2698 32.9815 18.0302 34.1596L16.2518 42.9027C16.8679 43.1693 17.4199 43.5789 17.875 44.1161C18.7353 45.1316 19.0885 46.4138 18.8696 47.7265L18.5962 49.367C18.2368 51.5231 16.3894 53.088 14.2038 53.088H6.67665C4.82067 53.088 3.15723 52.2921 1.99288 50.8467C0.847631 49.425 0.43221 47.6915 0.791617 45.8335L5.73999 20.2485C6.29486 17.3797 8.72305 15.3761 11.6451 15.3761H32.1899ZM12.4516 43.9488L14.5852 33.459C15.1619 30.6235 17.5855 28.6432 20.4793 28.6432H20.8413L22.9272 18.8918H11.6453C10.4311 18.8918 9.42229 19.7242 9.19179 20.9161L4.24318 46.5011C4.08217 47.3341 4.24154 48.0341 4.73067 48.6413C5.23539 49.268 5.87194 49.5725 6.67665 49.5725H14.2037C14.6714 49.5725 15.0516 49.2504 15.1285 48.7891L15.4019 47.1485C15.452 46.848 15.3895 46.6208 15.1926 46.3885C14.9957 46.156 14.7819 46.0569 14.4773 46.0569H14.1741C13.6465 46.0569 13.1469 45.8199 12.813 45.4113C12.4791 45.0028 12.3465 44.4659 12.4516 43.9488ZM24.436 28.6432H27.9304L30.0164 18.8918H26.5219L24.436 28.6432Z"
        fill="#0B3E83"
    />
</svg>
