<svg width="24" height="24" viewBox="0 0 24 24" fill="none" xmlns="http://www.w3.org/2000/svg">
    <path
        fill-rule="evenodd" clip-rule="evenodd"
        d="M14 3.75C14 2.64543 13.1046 1.75 12 1.75C10.8954 1.75 10 2.64543 10 3.75V10H3.75C2.64543 10 1.75 10.8954 1.75 12C1.75 13.1046 2.64543 14 3.75 14H10V20.25C10 21.3546 10.8954 22.25 12 22.25C13.1046 22.25 14 21.3546 14 20.25V14H20.25C21.3546 14 22.25 13.1046 22.25 12C22.25 10.8954 21.3546 10 20.25 10H14V3.75Z"
        fill="white"
    />
</svg>
