<svg width="61" height="60" viewBox="0 0 61 60" fill="none" xmlns="http://www.w3.org/2000/svg">
    <path
        fill-rule="evenodd" clip-rule="evenodd"
        d="M50.5425 35.9885C54.1433 35.9885 57.557 37.557 59.9082 40.2918L60.333 40.7859V56.3135L49.4257 60H0.333008V22.7536C0.333008 18.8118 3.43836 15.5816 7.33109 15.3807V7.62293H10.8925V0H28.8505C32.0059 0 34.5731 2.56723 34.573 5.72262H31.0573C31.0573 4.50574 30.0673 3.51562 28.8504 3.51562H22.0311V7.62305H25.5927V15.3809C29.4854 15.5817 32.5907 18.8118 32.5907 22.7536V23.888C33.0144 24.3336 33.6312 25.0179 34.2505 25.8301C35.8295 27.9012 36.6301 29.7592 36.6301 31.3523C36.6301 33.9363 34.9305 36.1301 32.5907 36.8763V39.6799H41.7393C44.0557 37.3243 47.2194 35.9885 50.5425 35.9885ZM28.5514 31.3523C28.5514 32.6104 29.5749 33.6339 30.8329 33.6339C32.0908 33.6339 33.1143 32.6104 33.1145 31.3523C33.1145 30.2695 32.0002 28.5599 30.8329 27.18C29.6659 28.5595 28.5514 30.2694 28.5514 31.3523ZM18.5155 3.51562H14.4082V7.62293H18.5155V3.51562ZM22.077 15.3708V11.1386H10.8467V15.3708H22.077ZM25.2079 18.8864H7.71582C5.58348 18.8864 3.84863 20.6211 3.84863 22.7536V48.9844H16.0528L11.4581 44.5533C10.3452 43.48 9.72453 42.0374 9.71035 40.4913C9.69629 38.9453 10.2904 37.4917 11.3836 36.3982C13.5436 34.2374 17.007 34.1542 19.2685 36.208L26.8931 43.1324C27.3493 42.0775 28.1154 41.1868 29.0751 40.5743V36.8763C26.7354 36.1301 25.0358 33.9362 25.0358 31.3523C25.0358 29.7591 25.8364 27.9012 27.4154 25.8301C28.0346 25.018 28.6515 24.3337 29.0751 23.888V22.7536C29.0751 20.6213 27.3403 18.8864 25.2079 18.8864ZM3.84863 52.5V56.4844H23.8296L19.6981 52.5H3.84863ZM48.8477 56.4844L56.8174 53.7907V42.1232C55.162 40.4514 52.9085 39.504 50.5425 39.504C47.9671 39.504 45.5251 40.6264 43.8426 42.5836L43.3166 43.1954H32.1397C30.9281 43.1954 29.9424 44.1811 29.9424 45.3927C29.9424 46.6043 30.9281 47.59 32.1397 47.59H42.1689V51.1056H32.1396C29.9513 51.1056 28.0466 49.8689 27.0873 48.0579L16.9048 38.8104C16.0344 38.0198 14.7013 38.052 13.8699 38.8836C13.4491 39.3046 13.2205 39.864 13.2259 40.4592C13.2312 41.0543 13.4702 41.6096 13.8985 42.0227L28.8941 56.4844H48.8477ZM47.075 18.4804C47.075 21.677 44.4744 24.2775 41.2779 24.2775C38.0813 24.2775 35.4807 21.677 35.4807 18.4805C35.4807 16.8872 36.2813 15.0292 37.8603 12.9582C38.942 11.5396 40.0194 10.5076 40.0647 10.4644L41.2779 9.30739L42.491 10.4643C42.5363 10.5075 43.6138 11.5395 44.6954 12.9581C46.2744 15.0292 47.075 16.8871 47.075 18.4804ZM43.5594 18.4805C43.5594 17.3977 42.4452 15.688 41.2777 14.3081C40.1108 15.6875 38.9963 17.3974 38.9963 18.4805C38.9963 19.7385 40.0198 20.762 41.2779 20.762C42.5359 20.762 43.5594 19.7385 43.5594 18.4805Z"
        fill="#0B3E83"
    />
</svg>
