<svg width="18" height="18" viewBox="0 0 18 18" fill="none" xmlns="http://www.w3.org/2000/svg">
    <path fill-rule="evenodd" clip-rule="evenodd"
          d="M4.9375 2.81249C4.93749 2.2602 4.48977 1.81249 3.93749 1.8125C3.3852 1.81251 2.93749 2.26023 2.9375 2.81251L2.93756 8.5625H2.25C1.69772 8.5625 1.25 9.01022 1.25 9.5625C1.25 10.1148 1.69772 10.5625 2.25 10.5625H3.93758H5.625C6.17729 10.5625 6.625 10.1148 6.625 9.5625C6.625 9.01022 6.17729 8.5625 5.625 8.5625H4.93756L4.9375 2.81249ZM14.0626 1.8125C14.6149 1.8125 15.0626 2.26022 15.0626 2.81251L15.0625 10.8125H15.75C16.3023 10.8125 16.75 11.2602 16.75 11.8125C16.75 12.3648 16.3023 12.8125 15.75 12.8125H14.0625H12.375C11.8227 12.8125 11.375 12.3648 11.375 11.8125C11.375 11.2602 11.8227 10.8125 12.375 10.8125H13.0625L13.0626 2.81249C13.0626 2.26021 13.5103 1.8125 14.0626 1.8125ZM9.00002 1.8125C9.5523 1.8125 10 2.26022 10 2.8125L10 5.1875H10.6875C11.2398 5.1875 11.6875 5.63522 11.6875 6.1875C11.6875 6.73978 11.2398 7.1875 10.6875 7.1875H9H7.3125C6.76022 7.1875 6.3125 6.73978 6.3125 6.1875C6.3125 5.63522 6.76022 5.1875 7.3125 5.1875H8L8.00002 2.8125C8.00002 2.26021 8.44773 1.8125 9.00002 1.8125ZM9 7.4375C9.55228 7.4375 10 7.88521 10 8.4375L10 15.1875C10 15.7398 9.5523 16.1875 9.00002 16.1875C8.44773 16.1875 8.00002 15.7398 8.00002 15.1875L8 8.4375C8 7.88522 8.44771 7.4375 9 7.4375ZM15.0625 14.0624C15.0625 13.5101 14.6147 13.0625 14.0624 13.0625C13.5101 13.0625 13.0625 13.5103 13.0625 14.0626L13.0626 15.1876C13.0626 15.7399 13.5104 16.1875 14.0626 16.1875C14.6149 16.1875 15.0626 15.7397 15.0626 15.1874L15.0625 14.0624ZM3.9376 10.8125C4.48988 10.8125 4.93759 11.2602 4.93757 11.8125L4.9375 15.1875C4.93749 15.7398 4.48976 16.1875 3.93748 16.1875C3.38519 16.1875 2.93749 15.7398 2.9375 15.1875L2.93757 11.8125C2.93759 11.2602 3.38531 10.8125 3.9376 10.8125Z"
          fill="white"/>
</svg>
