<svg width="640" height="640" viewBox="0 0 640 640" fill="none" xmlns="http://www.w3.org/2000/svg">
<rect width="640" height="640" rx="30" fill="#E82B02"/>
<path d="M303.723 82.48C346.789 82.48 382.829 86.56 411.843 94.72C441.309 102.427 463.296 115.347 477.803 133.48C492.763 151.16 500.243 175.187 500.243 205.56C500.243 223.693 497.296 240.24 491.402 255.2C485.509 270.16 476.896 282.4 465.563 291.92C454.683 301.44 441.309 307.56 425.443 310.28V313.68C441.763 316.853 456.496 322.52 469.643 330.68C482.789 338.84 493.216 350.627 500.923 366.04C508.629 381.453 512.483 401.853 512.483 427.24C512.483 456.707 505.229 482.093 490.723 503.4C476.669 524.253 456.269 540.347 429.523 551.68C402.776 562.56 371.043 568 334.323 568H152.763V82.48H303.723ZM315.283 274.92C345.203 274.92 365.829 270.16 377.163 260.64C388.949 251.12 394.843 237.293 394.843 219.16C394.843 200.573 388.043 187.2 374.443 179.04C360.843 170.88 339.309 166.8 309.843 166.8H255.443V274.92H315.283ZM255.443 356.52V483H322.763C353.589 483 375.123 477.107 387.363 465.32C399.603 453.08 405.723 436.987 405.723 417.04C405.723 404.8 403.003 394.147 397.563 385.08C392.576 376.013 383.736 368.987 371.043 364C358.349 359.013 341.123 356.52 319.363 356.52H255.443Z" fill="white"/>
</svg>
